<svg width="142" height="44" viewBox="0 0 142 44" fill="none" xmlns="http://www.w3.org/2000/svg">
<g clip-path="url(#clip0_2003_1312)">
<path d="M27.5519 18.9671C28.6575 20.4145 29.2103 22.0855 29.2103 23.9868C29.2103 26.8816 28.256 29.1118 26.341 30.6842C24.426 32.2566 21.6818 33.0395 18.1019 33.0395H0.78125V0H17.6347C20.9909 0 23.6363 0.730263 25.5645 2.19079C27.4927 3.65132 28.4601 5.78289 28.4601 8.58553C28.4601 10.5132 27.9533 12.1382 26.9399 13.4605C25.9264 14.7829 24.584 15.6645 22.8993 16.0987C24.8933 16.5658 26.4397 17.5197 27.5453 18.9671H27.5519ZM11.146 12.8816H15.1603C16.0947 12.8816 16.7857 12.6974 17.2398 12.3224C17.6939 11.9474 17.9176 11.375 17.9176 10.5987C17.9176 9.82237 17.6939 9.19079 17.2398 8.80263C16.7857 8.41447 16.0947 8.2171 15.1603 8.2171H11.146V12.8816ZM17.9374 24.1974C18.3914 23.8421 18.6152 23.2566 18.6152 22.4474C18.6152 20.8618 17.6939 20.0658 15.8644 20.0658H11.1526V24.7303H15.8644C16.7989 24.7303 17.4899 24.5526 17.9439 24.1908L17.9374 24.1974Z" fill="white"/>
<path d="M55.5136 17.0066C54.5462 18.7039 53.1248 20.0461 51.2427 21.0461C49.3606 22.0395 47.077 22.5395 44.4052 22.5395H40.2988V33.0395H29.9341V0H44.4052C48.4524 0 51.552 1.02632 53.7171 3.07895C55.8821 5.13158 56.9614 7.88816 56.9614 11.3355C56.9614 13.4211 56.481 15.3092 55.5136 17.0066ZM46.4584 11.3421C46.4584 9.32237 45.3858 8.30921 43.2404 8.30921H40.2988V14.375H43.2404C45.3858 14.375 46.4584 13.3618 46.4584 11.3421Z" fill="white"/>
<path d="M57.8037 0V33.0395H141.531V0H57.8037ZM132.68 27.0066C131.14 28.5197 129.028 29.2763 126.343 29.2763C124.382 29.2763 122.69 28.9342 121.269 28.25C119.847 27.5658 118.762 26.6184 118.025 25.4145C117.689 24.8618 117.432 24.2763 117.261 23.6579V28.9342H99.5917V23.9079C99.2758 24.5724 98.9139 25.1776 98.4993 25.7368C96.8146 28.0066 94.235 29.1382 90.7735 29.1382C87.312 29.1382 84.706 28.0066 83.0345 25.7368C82.6923 25.2763 82.4027 24.7763 82.1263 24.25V28.9342H64.4569V23.2303C67.5104 20.9539 69.9255 18.8882 71.7023 17.0263C73.4791 15.1711 74.3676 13.4342 74.3676 11.8158C74.3676 11.2697 74.2491 10.8487 74.0056 10.5526C73.7687 10.2566 73.4528 10.1118 73.0646 10.1118C72.6105 10.1118 72.2485 10.3487 71.9853 10.8092C71.7221 11.2763 71.6234 11.9868 71.6958 12.9474H64.345C64.4108 10.8289 64.8715 9.08553 65.727 7.7171C66.5825 6.34868 67.6946 5.34868 69.0569 4.71053C70.4257 4.07237 71.9261 3.75658 73.5713 3.75658C76.4866 3.75658 78.6253 4.46053 79.981 5.85526C80.9089 6.80921 81.5077 7.95395 81.8039 9.28289C82.1461 8.5 82.5475 7.7829 83.0213 7.13816C84.6928 4.88158 87.2791 3.75658 90.7603 3.75658C94.2415 3.75658 96.8015 4.88816 98.4862 7.15789C99.0718 7.94737 99.5522 8.84868 99.9405 9.8421C100.164 9.05921 100.474 8.34868 100.862 7.72368C101.717 6.35526 102.829 5.35526 104.192 4.71711C105.561 4.07895 107.061 3.76316 108.706 3.76316C111.621 3.76316 113.76 4.46711 115.116 5.86184C116.116 6.89474 116.748 8.14474 117.004 9.60526V4.30263H133.753V10.9671H123.842V13.8355C124.276 13.4474 124.836 13.1382 125.533 12.9145C126.231 12.6842 127.007 12.5724 127.876 12.5724C129.422 12.5724 130.739 12.9342 131.805 13.6645C132.877 14.3947 133.674 15.3684 134.2 16.5855C134.727 17.8026 134.983 19.1513 134.983 20.6316C134.983 23.3684 134.213 25.4868 132.673 27.0066H132.68Z" fill="white"/>
<path d="M79.8099 17.7171C78.3423 19.7303 76.4997 21.4342 74.2886 22.8224H81.4814C80.8496 21.0658 80.5272 19 80.514 16.625C80.2968 16.9934 80.0665 17.3553 79.8099 17.7171Z" fill="white"/>
<path d="M125.862 18.4868C125.382 18.4868 125.02 18.5986 124.77 18.8289C124.52 19.0591 124.395 19.3223 124.395 19.6184H117.011V12.967C116.735 14.6315 116.044 16.217 114.951 17.7236C113.484 19.7368 111.641 21.4407 109.43 22.8289H117.077C116.998 22.3355 116.965 21.8223 116.978 21.2894H124.362C124.362 21.6513 124.487 21.9934 124.737 22.3157C124.987 22.6381 125.395 22.796 125.968 22.796C126.54 22.796 126.961 22.592 127.231 22.1841C127.508 21.7763 127.639 21.217 127.639 20.5131C127.639 19.8552 127.488 19.3486 127.179 19.0065C126.869 18.6644 126.435 18.4934 125.862 18.4934V18.4868Z" fill="white"/>
<path d="M90.7668 10.9343C89.6283 10.9343 88.8781 11.3949 88.5096 12.3159C88.1476 13.237 87.9634 14.612 87.9634 16.4343C87.9634 18.2567 88.1476 19.6646 88.5096 20.5856C88.8715 21.5067 89.6283 21.9672 90.7668 21.9672C91.9053 21.9672 92.6226 21.5067 92.9911 20.5856C93.353 19.6646 93.5373 18.2764 93.5373 16.4343C93.5373 14.5922 93.353 13.237 92.9911 12.3159C92.6292 11.3949 91.8855 10.9343 90.7668 10.9343Z" fill="white"/>
<path d="M109.134 10.5592C108.897 10.2631 108.581 10.1184 108.193 10.1184C107.739 10.1184 107.377 10.3553 107.113 10.8158C106.85 11.2829 106.751 11.9934 106.824 12.9539H100.75C100.921 14.0329 101.02 15.1908 101.02 16.4408C101.02 18.9408 100.677 21.0987 99.9995 22.9276C102.856 20.7763 105.133 18.8092 106.83 17.0395C108.607 15.1842 109.496 13.4474 109.496 11.8289C109.496 11.2829 109.377 10.8618 109.134 10.5658V10.5592Z" fill="white"/>
<path d="M4.38077 41.5725C4.59793 41.8291 4.70981 42.1318 4.70981 42.4739C4.70981 42.9015 4.56503 43.2568 4.26889 43.5265C3.97276 43.7962 3.54501 43.9344 2.97906 43.9344H1.40625V38.4673H2.97248C3.51868 38.4673 3.92011 38.5923 4.18334 38.8357C4.44657 39.0791 4.57819 39.4015 4.57819 39.8028C4.57819 40.1647 4.47948 40.4541 4.28864 40.6712C4.09121 40.8883 3.8543 41.0265 3.56475 41.0923C3.89379 41.1515 4.1636 41.316 4.38077 41.5725ZM1.56419 41.0133H3.02512C3.4792 41.0133 3.82798 40.9081 4.07147 40.691C4.31496 40.4739 4.43341 40.1778 4.43341 39.8028C4.43341 39.4278 4.31496 39.1515 4.07805 38.941C3.84114 38.7304 3.47262 38.6252 2.98564 38.6252H1.56419V41.0199V41.0133ZM4.13728 43.4278C4.41367 43.1975 4.55187 42.8752 4.55187 42.4739C4.55187 42.0725 4.40709 41.7568 4.12412 41.5199C3.84114 41.2831 3.45288 41.1647 2.95932 41.1647H1.56419V43.7765H2.97906C3.4792 43.7765 3.86088 43.6581 4.13728 43.4278Z" fill="white"/>
<path d="M9.79687 43.7962H11.8961V43.9344H9.64551V38.4673H9.80345V43.7962H9.79687Z" fill="white"/>
<path d="M19.6219 42.4276H16.9172L16.3447 43.9342H16.167L18.1939 38.6316H18.3518L20.3721 43.9342H20.1944L19.6285 42.4276H19.6219ZM19.5693 42.2895L18.2728 38.8816L16.9764 42.2895H19.5693Z" fill="white"/>
<path d="M25.2746 39.7632C25.4918 39.3422 25.7945 39.0132 26.1828 38.7698C26.571 38.533 27.0119 38.4146 27.4923 38.4146C28.1307 38.4146 28.6571 38.5593 29.0717 38.8553C29.4863 39.1514 29.7956 39.5593 29.9865 40.0856H29.8285C29.664 39.6251 29.381 39.2567 28.9796 38.9738C28.5782 38.6974 28.0846 38.5527 27.4858 38.5527C27.0383 38.5527 26.6368 38.658 26.2749 38.8751C25.9129 39.0922 25.6234 39.4014 25.4194 39.7961C25.2088 40.1974 25.1035 40.6646 25.1035 41.204C25.1035 41.7435 25.2088 42.204 25.4194 42.6053C25.63 43.0067 25.9195 43.3093 26.2815 43.5264C26.6434 43.7435 27.0514 43.8488 27.4923 43.8488C28.0846 43.8488 28.5847 43.7106 28.9862 43.4343C29.3876 43.158 29.664 42.7895 29.8351 42.329H29.993C29.8022 42.8488 29.4995 43.2567 29.0783 43.5527C28.6637 43.8488 28.1372 43.9935 27.4989 43.9935C27.0119 43.9935 26.5776 43.8751 26.1893 43.6382C25.8011 43.4014 25.4984 43.0724 25.2812 42.6514C25.064 42.2303 24.9521 41.7501 24.9521 41.2106C24.9521 40.6711 25.064 40.1843 25.2812 39.7632H25.2746Z" fill="white"/>
<path d="M35.2513 41.2039L38.0218 43.9407H37.8112L35.1526 41.3289V43.9407H34.9946V38.4736H35.1526V41.0986L37.8112 38.4736H38.0218L35.2513 41.2039Z" fill="white"/>
<path d="M51.5451 41.0989C51.2489 41.3489 50.8146 41.4739 50.2421 41.4739H49.0115V43.9344H48.8535V38.4673H50.2355C50.8343 38.4673 51.2752 38.5989 51.5582 38.862C51.8412 39.1252 51.9794 39.4936 51.9794 39.9739C51.9794 40.4739 51.8346 40.8489 51.5385 41.0989H51.5451ZM51.4595 40.9607C51.7096 40.7304 51.8346 40.4015 51.8346 39.9739C51.8346 39.5265 51.7096 39.191 51.4595 38.9673C51.2094 38.737 50.8014 38.6252 50.2421 38.6252H49.0115V41.3094H50.2421C50.8014 41.3094 51.2094 41.191 51.4595 40.9607Z" fill="white"/>
<path d="M59.837 43.9344L58.3761 41.5528H57.0007V43.9344H56.8428V38.4673H58.2116C58.8104 38.4673 59.2579 38.6054 59.5541 38.8818C59.8436 39.1581 59.995 39.5331 59.995 40.0068C59.995 40.4475 59.8699 40.7962 59.6199 41.066C59.3698 41.3291 59.0144 41.487 58.5538 41.5397L60.0279 43.941H59.837V43.9344ZM58.2247 41.4015C58.7578 41.4015 59.1592 41.2765 59.4224 41.0199C59.6857 40.7633 59.8239 40.4278 59.8239 40.0002C59.8239 39.0791 59.2842 38.6186 58.205 38.6186H56.9941V41.4015H58.2247Z" fill="white"/>
<path d="M65.9505 43.6448C65.5557 43.408 65.2464 43.079 65.0226 42.658C64.7989 42.2303 64.687 41.7501 64.687 41.2106C64.687 40.6711 64.7989 40.1909 65.0226 39.7632C65.2464 39.3356 65.5557 39.0067 65.9505 38.7698C66.3454 38.533 66.7929 38.4146 67.2996 38.4146C67.8063 38.4146 68.2538 38.533 68.6486 38.7698C69.0435 39.0067 69.3528 39.3356 69.5765 39.7632C69.8003 40.1909 69.9122 40.6711 69.9122 41.2106C69.9122 41.7501 69.8003 42.2303 69.5765 42.658C69.3528 43.0856 69.0435 43.4145 68.6486 43.6448C68.2538 43.8817 67.8063 44.0001 67.2996 44.0001C66.7929 44.0001 66.3454 43.8817 65.9505 43.6448ZM68.5434 43.533C68.9185 43.3159 69.208 43.0067 69.4252 42.6119C69.6423 42.2106 69.7476 41.7435 69.7476 41.2106C69.7476 40.6777 69.6423 40.2106 69.4252 39.8093C69.208 39.408 68.9185 39.0988 68.5434 38.8882C68.1682 38.6711 67.7537 38.5659 67.2996 38.5659C66.8455 38.5659 66.4309 38.6711 66.0558 38.8882C65.6807 39.1053 65.3912 39.408 65.174 39.8093C64.9568 40.2106 64.8515 40.6777 64.8515 41.2106C64.8515 41.7435 64.9568 42.2106 65.174 42.6119C65.3912 43.0132 65.6807 43.3224 66.0558 43.533C66.4309 43.7501 66.8455 43.8553 67.2996 43.8553C67.7537 43.8553 68.1682 43.7501 68.5434 43.533Z" fill="white"/>
<path d="M76.9473 38.4673V42.8225C76.9473 43.1581 76.842 43.4344 76.6314 43.6581C76.4208 43.8752 76.1313 43.987 75.7562 43.987C75.3548 43.987 75.0389 43.862 74.8217 43.612C74.6045 43.362 74.4927 43.0199 74.4927 42.5857H74.6506C74.6506 42.9475 74.7362 43.2502 74.9138 43.487C75.0915 43.7239 75.3745 43.8423 75.7628 43.8423C76.1313 43.8423 76.3945 43.7436 76.5525 43.5331C76.7104 43.3291 76.796 43.0923 76.796 42.816V38.4607H76.9539L76.9473 38.4673Z" fill="white"/>
<path d="M82.2712 38.6054V41.1318H84.5548V41.2699H82.2712V43.7962H84.7851V43.9344H82.1133V38.4673H84.7851V38.6054H82.2712Z" fill="white"/>
<path d="M89.8522 39.7632C90.0694 39.3422 90.3721 39.0132 90.7604 38.7698C91.1487 38.533 91.5896 38.4146 92.07 38.4146C92.7083 38.4146 93.2348 38.5593 93.6494 38.8553C94.0639 39.1514 94.3732 39.5593 94.5641 40.0856H94.4062C94.2416 39.6251 93.9587 39.2567 93.5572 38.9738C93.1558 38.6974 92.6622 38.5527 92.0634 38.5527C91.6159 38.5527 91.2145 38.658 90.8525 38.8751C90.4906 39.0922 90.201 39.4014 89.997 39.7961C89.7864 40.1974 89.6811 40.6646 89.6811 41.204C89.6811 41.7435 89.7864 42.204 89.997 42.6053C90.2076 43.0067 90.4972 43.3093 90.8591 43.5264C91.2211 43.7435 91.6291 43.8488 92.07 43.8488C92.6622 43.8488 93.1624 43.7106 93.5638 43.4343C93.9652 43.158 94.2416 42.7895 94.4127 42.329H94.5707C94.3798 42.8488 94.0771 43.2567 93.6559 43.5527C93.2414 43.8488 92.7149 43.9935 92.0765 43.9935C91.5896 43.9935 91.1552 43.8751 90.767 43.6382C90.3787 43.4014 90.076 43.0724 89.8588 42.6514C89.6417 42.2303 89.5298 41.7501 89.5298 41.2106C89.5298 40.6711 89.6417 40.1843 89.8588 39.7632H89.8522Z" fill="white"/>
<path d="M102.408 38.4673V38.6054H100.815V43.9344H100.657V38.6054H99.0649V38.4673H102.408Z" fill="white"/>
<path d="M115.372 41.8619C115.964 41.1909 116.261 40.5461 116.261 39.9343C116.261 39.533 116.149 39.1974 115.932 38.9409C115.714 38.6843 115.359 38.5527 114.859 38.5527C114.359 38.5527 113.971 38.704 113.707 39.0066C113.437 39.3093 113.286 39.7106 113.253 40.204H113.095C113.135 39.6448 113.312 39.204 113.622 38.8882C113.931 38.5724 114.346 38.408 114.859 38.408C115.3 38.408 115.668 38.533 115.964 38.7698C116.261 39.0132 116.412 39.4014 116.412 39.9277C116.412 40.3882 116.247 40.8619 115.925 41.3553C115.603 41.8487 115.195 42.3027 114.714 42.7237C114.234 43.1448 113.753 43.5001 113.266 43.783H116.596V43.9211H112.97V43.8356C113.977 43.1843 114.78 42.5198 115.372 41.8487V41.8619Z" fill="white"/>
<path d="M121.558 39.7106C121.65 39.3093 121.828 38.9935 122.078 38.7632C122.335 38.533 122.69 38.4146 123.157 38.4146C123.624 38.4146 123.98 38.533 124.23 38.7632C124.487 38.9935 124.664 39.3159 124.756 39.7172C124.849 40.1185 124.895 40.6119 124.895 41.1909C124.895 41.7698 124.849 42.2764 124.756 42.6843C124.664 43.0856 124.487 43.408 124.23 43.6448C123.973 43.8817 123.618 44.0001 123.157 44.0001C122.697 44.0001 122.328 43.8817 122.078 43.6448C121.821 43.408 121.65 43.0922 121.558 42.6843C121.466 42.283 121.42 41.783 121.42 41.1909C121.42 40.5988 121.466 40.1119 121.558 39.7172V39.7106ZM124.618 39.783C124.533 39.408 124.381 39.1053 124.151 38.8882C123.921 38.6711 123.592 38.5593 123.164 38.5593C122.736 38.5593 122.407 38.6711 122.177 38.8882C121.946 39.1053 121.788 39.408 121.709 39.783C121.624 40.158 121.584 40.6317 121.584 41.1909C121.584 41.7501 121.624 42.2303 121.709 42.6119C121.795 42.9935 121.946 43.2961 122.177 43.5198C122.407 43.7435 122.736 43.8553 123.164 43.8553C123.592 43.8553 123.921 43.7435 124.151 43.5198C124.381 43.2961 124.539 42.9935 124.618 42.6119C124.704 42.2303 124.743 41.7567 124.743 41.1909C124.743 40.6251 124.704 40.1646 124.618 39.783Z" fill="white"/>
<path d="M132.114 41.8619C132.706 41.1909 133.002 40.5461 133.002 39.9343C133.002 39.533 132.89 39.1974 132.673 38.9409C132.456 38.6843 132.101 38.5527 131.601 38.5527C131.1 38.5527 130.712 38.704 130.449 39.0066C130.179 39.3093 130.028 39.7106 129.995 40.204H129.837C129.876 39.6448 130.054 39.204 130.363 38.8882C130.673 38.5724 131.087 38.408 131.601 38.408C132.042 38.408 132.41 38.533 132.706 38.7698C133.002 39.0132 133.154 39.4014 133.154 39.9277C133.154 40.3882 132.989 40.8619 132.667 41.3553C132.344 41.8487 131.936 42.3027 131.456 42.7237C130.975 43.1448 130.495 43.5001 130.008 43.783H133.338V43.9211H129.712V43.8356C130.719 43.1843 131.522 42.5198 132.114 41.8487V41.8619Z" fill="white"/>
<path d="M141.518 38.6054H138.399V41.0923C138.55 40.8686 138.767 40.6909 139.057 40.5594C139.346 40.4278 139.662 40.3554 140.004 40.3554C140.603 40.3554 141.051 40.5199 141.347 40.8554C141.637 41.1909 141.788 41.6054 141.788 42.0988C141.788 42.4409 141.729 42.7567 141.604 43.0396C141.479 43.3225 141.281 43.5528 141.011 43.7238C140.742 43.8949 140.399 43.987 139.985 43.987C139.498 43.987 139.09 43.8488 138.767 43.5725C138.445 43.2962 138.241 42.9212 138.168 42.4409H138.326C138.412 42.8883 138.609 43.237 138.899 43.4738C139.195 43.7107 139.557 43.8291 139.978 43.8291C140.524 43.8291 140.939 43.6712 141.222 43.3488C141.498 43.033 141.643 42.612 141.643 42.0923C141.643 41.5725 141.505 41.2041 141.222 40.9146C140.939 40.6252 140.538 40.4804 140.024 40.4804C139.669 40.4804 139.346 40.5528 139.063 40.7041C138.78 40.8554 138.557 41.0659 138.405 41.3357H138.267V38.4541H141.544V38.5923L141.518 38.6054Z" fill="white"/>
</g>
<defs>
<clipPath id="clip0_2003_1312">
<rect width="141" height="44" fill="white" transform="translate(0.78125)"/>
</clipPath>
</defs>
</svg>
