<svg width="277" height="86" viewBox="0 0 277 86" fill="none" xmlns="http://www.w3.org/2000/svg">
<g clip-path="url(#clip0_1_441)">
<path d="M52.9842 37.0721C55.1485 39.901 56.2307 43.1672 56.2307 46.8834C56.2307 52.5413 54.3627 56.9004 50.6137 59.9737C46.8647 63.047 41.4925 64.5772 34.4841 64.5772H0.575928V0H33.5694C40.1398 0 45.3188 1.42733 49.0935 4.282C52.8682 7.13666 54.762 11.3029 54.762 16.7808C54.762 20.5484 53.77 23.7246 51.7861 26.3092C49.8021 28.8938 47.1739 30.6169 43.8759 31.4656C47.7794 32.3786 50.8069 34.2431 52.9713 37.0721H52.9842ZM20.8667 25.1776H28.7254C30.5548 25.1776 31.9075 24.8176 32.7964 24.0846C33.6854 23.3517 34.1234 22.233 34.1234 20.7156C34.1234 19.1983 33.6854 17.9638 32.7964 17.2051C31.9075 16.4465 30.5548 16.0607 28.7254 16.0607H20.8667V25.1776ZM34.162 47.2949C35.051 46.6005 35.489 45.456 35.489 43.8744C35.489 40.7754 33.6854 39.2195 30.1039 39.2195H20.8796V48.3364H30.1039C31.9333 48.3364 33.286 47.9892 34.1749 47.282L34.162 47.2949Z" fill="black"/>
<path d="M107.724 33.2401C105.83 36.5577 103.048 39.1809 99.3631 41.1355C95.6786 43.0772 91.2082 44.0544 85.9777 44.0544H77.9386V64.5772H57.6478V0H85.9777C93.9007 0 99.9687 2.00598 104.207 6.01794C108.446 10.0299 110.559 15.4178 110.559 22.1558C110.559 26.2321 109.618 29.9226 107.724 33.2401ZM89.9972 22.1687C89.9972 18.221 87.8972 16.2407 83.6974 16.2407H77.9386V28.0966H83.6974C87.8972 28.0966 89.9972 26.1163 89.9972 22.1687Z" fill="black"/>
<path d="M112.208 0V64.5772H276.119V0H112.208ZM258.791 52.7856C255.776 55.7431 251.641 57.2219 246.384 57.2219C242.545 57.2219 239.234 56.5532 236.452 55.2159C233.669 53.8786 231.543 52.0269 230.1 49.6737C229.443 48.5936 228.941 47.4492 228.606 46.2404V56.5532H194.015V46.7291C193.396 48.0278 192.688 49.2108 191.876 50.3038C188.578 54.7401 183.528 56.9519 176.752 56.9519C169.975 56.9519 164.873 54.7401 161.601 50.3038C160.931 49.4037 160.364 48.4264 159.823 47.3977V56.5532H125.232V45.4046C131.21 40.9554 135.938 36.9178 139.417 33.2787C142.895 29.6525 144.634 26.2578 144.634 23.0945C144.634 22.0272 144.402 21.2042 143.926 20.6256C143.462 20.047 142.843 19.7641 142.083 19.7641C141.194 19.7641 140.486 20.227 139.97 21.1271C139.455 22.0401 139.262 23.4288 139.404 25.3062H125.013C125.142 21.1657 126.044 17.7581 127.719 15.0834C129.394 12.4088 131.571 10.4542 134.238 9.20694C136.917 7.95963 139.855 7.3424 143.075 7.3424C148.782 7.3424 152.969 8.7183 155.623 11.4444C157.44 13.3089 158.612 15.5464 159.192 18.1438C159.862 16.6136 160.648 15.212 161.575 13.9519C164.848 9.54127 169.911 7.3424 176.726 7.3424C183.541 7.3424 188.552 9.55413 191.851 13.9904C192.997 15.5335 193.938 17.2952 194.698 19.2368C195.136 17.7066 195.741 16.3179 196.501 15.0963C198.176 12.4217 200.353 10.4671 203.02 9.2198C205.7 7.97249 208.637 7.35526 211.858 7.35526C217.565 7.35526 221.752 8.73116 224.406 11.4572C226.364 13.4761 227.601 15.9193 228.103 18.7739V8.40969H260.891V21.4357H241.489V27.0422C242.339 26.2835 243.434 25.6791 244.8 25.2419C246.165 24.7919 247.686 24.5733 249.386 24.5733C252.414 24.5733 254.99 25.2805 257.077 26.7078C259.177 28.1352 260.736 30.0383 261.767 32.4172C262.798 34.7961 263.3 37.4321 263.3 40.3254C263.3 45.6746 261.793 49.8152 258.778 52.7856H258.791Z" fill="black"/>
<path d="M155.288 34.6288C152.416 38.5636 148.808 41.8941 144.48 44.6073H158.561C157.324 41.174 156.693 37.1363 156.667 32.4943C156.242 33.2144 155.791 33.9216 155.288 34.6288Z" fill="black"/>
<path d="M245.444 36.1334C244.504 36.1334 243.795 36.352 243.305 36.8021C242.816 37.2521 242.571 37.7665 242.571 38.3451H228.116V25.3448C227.575 28.5981 226.222 31.6971 224.084 34.6418C221.211 38.5766 217.604 41.9071 213.275 44.6203H228.245C228.091 43.6559 228.026 42.6529 228.052 41.6113H242.507C242.507 42.3185 242.751 42.9872 243.241 43.6173C243.731 44.2474 244.529 44.556 245.65 44.556C246.771 44.556 247.595 44.1574 248.124 43.3601C248.665 42.5629 248.922 41.4699 248.922 40.094C248.922 38.8081 248.626 37.8179 248.021 37.1493C247.415 36.4806 246.565 36.1463 245.444 36.1463V36.1334Z" fill="black"/>
<path d="M176.739 21.3715C174.51 21.3715 173.041 22.2716 172.32 24.0718C171.611 25.8721 171.25 28.5596 171.25 32.1215C171.25 35.6834 171.611 38.4352 172.32 40.2354C173.028 42.0356 174.51 42.9358 176.739 42.9358C178.967 42.9358 180.372 42.0356 181.093 40.2354C181.802 38.4352 182.162 35.7219 182.162 32.1215C182.162 28.521 181.802 25.8721 181.093 24.0718C180.385 22.2716 178.929 21.3715 176.739 21.3715Z" fill="black"/>
<path d="M212.695 20.6384C212.231 20.0597 211.613 19.7769 210.853 19.7769C209.964 19.7769 209.255 20.2398 208.74 21.1399C208.225 22.0529 208.032 23.4416 208.173 25.319H196.282C196.617 27.4279 196.81 29.691 196.81 32.1342C196.81 37.0206 196.141 41.2383 194.814 44.813C200.405 40.6082 204.862 36.7634 208.186 33.3044C211.665 29.6782 213.404 26.2834 213.404 23.1202C213.404 22.0529 213.172 21.2299 212.695 20.6513V20.6384Z" fill="black"/>
<path d="M7.62294 81.255C8.04808 81.7565 8.2671 82.348 8.2671 83.0167C8.2671 83.8525 7.98367 84.5469 7.40393 85.0741C6.8242 85.6013 5.9868 85.8714 4.87885 85.8714H1.7998V75.1857H4.86597C5.93526 75.1857 6.72113 75.43 7.23645 75.9058C7.75177 76.3815 8.00944 77.0116 8.00944 77.796C8.00944 78.5033 7.81619 79.069 7.44258 79.4934C7.05609 79.9177 6.5923 80.1878 6.02545 80.3163C6.6696 80.4321 7.1978 80.7535 7.62294 81.255ZM2.109 80.162H4.96904C5.85797 80.162 6.54077 79.9563 7.01744 79.532C7.49411 79.1076 7.72601 78.529 7.72601 77.796C7.72601 77.0631 7.49411 76.523 7.03032 76.1115C6.56653 75.7 5.84508 75.4943 4.89174 75.4943H2.109V80.1749V80.162ZM7.14627 84.8812C7.68736 84.4312 7.9579 83.8011 7.9579 83.0167C7.9579 82.2323 7.67448 81.6151 7.12051 81.1522C6.56653 80.6893 5.80643 80.4578 4.8402 80.4578H2.109V85.5628H4.87885C5.85797 85.5628 6.60518 85.3313 7.14627 84.8812Z" fill="black"/>
<path d="M18.2258 85.6013H22.3354V85.8714H17.9294V75.1857H18.2386V85.6013H18.2258Z" fill="black"/>
<path d="M37.4601 82.9268H32.1652L31.0444 85.8714H30.6965L34.6645 75.5072H34.9737L38.9288 85.8714H38.581L37.473 82.9268H37.4601ZM37.3571 82.6567L34.8191 75.9958L32.2812 82.6567H37.3571Z" fill="black"/>
<path d="M48.5267 77.7188C48.9518 76.8959 49.5444 76.2529 50.3045 75.7771C51.0646 75.3142 51.9278 75.0828 52.8682 75.0828C54.1179 75.0828 55.1485 75.3657 55.9602 75.9443C56.7718 76.523 57.3773 77.3202 57.7509 78.3489H57.4417C57.1197 77.4488 56.5657 76.7287 55.7798 76.1758C54.9939 75.6357 54.0277 75.3528 52.8554 75.3528C51.9793 75.3528 51.1934 75.5585 50.4849 75.9829C49.7763 76.4072 49.2095 77.0116 48.8101 77.7831C48.3978 78.5675 48.1917 79.4805 48.1917 80.5349C48.1917 81.5893 48.3978 82.4895 48.8101 83.2739C49.2223 84.0582 49.7892 84.6498 50.4978 85.0741C51.2063 85.4984 52.0051 85.7042 52.8682 85.7042C54.0277 85.7042 55.0068 85.4341 55.7927 84.8941C56.5786 84.354 57.1197 83.6339 57.4546 82.7338H57.7638C57.3902 83.7496 56.7976 84.5469 55.9731 85.1255C55.1614 85.7042 54.1308 85.9871 52.8811 85.9871C51.9278 85.9871 51.0775 85.7556 50.3174 85.2927C49.5573 84.8298 48.9647 84.1868 48.5395 83.3639C48.1144 82.5409 47.8954 81.6022 47.8954 80.5478C47.8954 79.4933 48.1144 78.5418 48.5395 77.7188H48.5267Z" fill="black"/>
<path d="M68.0574 80.5349L73.4811 85.8842H73.0689L67.8641 80.7792V85.8842H67.5549V75.1985H67.8641V80.3292L73.0689 75.1985H73.4811L68.0574 80.5349Z" fill="black"/>
<path d="M99.9558 80.3292C99.3761 80.8178 98.5258 81.0622 97.405 81.0622H94.9958V85.8714H94.6866V75.1857H97.3921C98.5644 75.1857 99.4276 75.4428 99.9816 75.9572C100.536 76.4716 100.806 77.1916 100.806 78.1303C100.806 79.1076 100.523 79.8406 99.9429 80.3292H99.9558ZM99.7883 80.0592C100.278 79.6091 100.523 78.9662 100.523 78.1303C100.523 77.2559 100.278 76.6001 99.7883 76.1629C99.2988 75.7129 98.5 75.4943 97.405 75.4943H94.9958V80.7407H97.405C98.5 80.7407 99.2988 80.5092 99.7883 80.0592Z" fill="black"/>
<path d="M116.188 85.8714L113.328 81.2165H110.636V85.8714H110.327V75.1857H113.006C114.179 75.1857 115.055 75.4557 115.634 75.9958C116.201 76.5358 116.498 77.2688 116.498 78.1946C116.498 79.0562 116.253 79.7377 115.763 80.2649C115.274 80.7793 114.578 81.0879 113.676 81.1908L116.562 85.8842H116.188V85.8714ZM113.032 80.9207C114.076 80.9207 114.861 80.6764 115.377 80.1749C115.892 79.6734 116.163 79.0176 116.163 78.1818C116.163 76.3815 115.106 75.4814 112.993 75.4814H110.623V80.9207H113.032Z" fill="black"/>
<path d="M128.157 85.3055C127.384 84.8426 126.778 84.1997 126.34 83.3767C125.902 82.5409 125.683 81.6022 125.683 80.5478C125.683 79.4934 125.902 78.5547 126.34 77.7188C126.778 76.883 127.384 76.2401 128.157 75.7771C128.93 75.3142 129.806 75.0828 130.798 75.0828C131.79 75.0828 132.666 75.3142 133.439 75.7771C134.212 76.2401 134.817 76.883 135.255 77.7188C135.693 78.5547 135.912 79.4934 135.912 80.5478C135.912 81.6022 135.693 82.5409 135.255 83.3767C134.817 84.2125 134.212 84.8555 133.439 85.3055C132.666 85.7685 131.79 85.9999 130.798 85.9999C129.806 85.9999 128.93 85.7685 128.157 85.3055ZM133.233 85.0869C133.967 84.6626 134.534 84.0582 134.959 83.2867C135.384 82.5023 135.59 81.5893 135.59 80.5478C135.59 79.5062 135.384 78.5932 134.959 77.8088C134.534 77.0244 133.967 76.4201 133.233 76.0086C132.498 75.5843 131.687 75.3785 130.798 75.3785C129.909 75.3785 129.097 75.5843 128.363 76.0086C127.629 76.4329 127.062 77.0244 126.637 77.8088C126.211 78.5932 126.005 79.5062 126.005 80.5478C126.005 81.5893 126.211 82.5023 126.637 83.2867C127.062 84.0711 127.629 84.6755 128.363 85.0869C129.097 85.5113 129.909 85.717 130.798 85.717C131.687 85.717 132.498 85.5113 133.233 85.0869Z" fill="black"/>
<path d="M149.684 75.1857V83.6983C149.684 84.3541 149.478 84.8941 149.066 85.3313C148.654 85.7557 148.087 85.9743 147.353 85.9743C146.567 85.9743 145.948 85.73 145.523 85.2413C145.098 84.7527 144.879 84.084 144.879 83.2354H145.188C145.188 83.9426 145.356 84.5341 145.704 84.997C146.051 85.4599 146.605 85.6914 147.365 85.6914C148.087 85.6914 148.602 85.4985 148.911 85.087C149.221 84.6884 149.388 84.2255 149.388 83.6854V75.1729H149.697L149.684 75.1857Z" fill="black"/>
<path d="M160.107 75.4557V80.3935H164.577V80.6635H160.107V85.6013H165.028V85.8714H159.798V75.1857H165.028V75.4557H160.107Z" fill="black"/>
<path d="M174.948 77.7188C175.373 76.8959 175.966 76.2529 176.726 75.7771C177.486 75.3142 178.349 75.0828 179.29 75.0828C180.539 75.0828 181.57 75.3657 182.382 75.9443C183.193 76.523 183.799 77.3202 184.172 78.3489H183.863C183.541 77.4488 182.987 76.7287 182.201 76.1758C181.415 75.6357 180.449 75.3528 179.277 75.3528C178.401 75.3528 177.615 75.5585 176.906 75.9829C176.198 76.4072 175.631 77.0116 175.231 77.7831C174.819 78.5675 174.613 79.4805 174.613 80.5349C174.613 81.5893 174.819 82.4895 175.231 83.2739C175.644 84.0582 176.211 84.6498 176.919 85.0741C177.628 85.4984 178.426 85.7042 179.29 85.7042C180.449 85.7042 181.428 85.4341 182.214 84.8941C183 84.354 183.541 83.6339 183.876 82.7338H184.185C183.812 83.7496 183.219 84.5469 182.394 85.1255C181.583 85.7042 180.552 85.9871 179.303 85.9871C178.349 85.9871 177.499 85.7556 176.739 85.2927C175.979 84.8298 175.386 84.1868 174.961 83.3639C174.536 82.5409 174.317 81.6022 174.317 80.5478C174.317 79.4933 174.536 78.5418 174.961 77.7188H174.948Z" fill="black"/>
<path d="M199.529 75.1857V75.4557H196.411V85.8714H196.102V75.4557H192.984V75.1857H199.529Z" fill="black"/>
<path d="M224.909 81.8208C226.068 80.5092 226.648 79.2491 226.648 78.0532C226.648 77.2688 226.429 76.613 226.004 76.1115C225.578 75.61 224.883 75.3528 223.904 75.3528C222.925 75.3528 222.164 75.6486 221.649 76.2401C221.121 76.8316 220.825 77.616 220.76 78.5804H220.451C220.528 77.4874 220.876 76.6259 221.482 76.0086C222.087 75.3914 222.899 75.0699 223.904 75.0699C224.767 75.0699 225.488 75.3143 226.068 75.7772C226.648 76.253 226.944 77.0116 226.944 78.0403C226.944 78.9405 226.622 79.8663 225.991 80.8307C225.359 81.7951 224.561 82.6824 223.62 83.5054C222.68 84.3283 221.739 85.0227 220.786 85.5756H227.305V85.8457H220.206V85.6785C222.177 84.4055 223.749 83.1067 224.909 81.7951V81.8208Z" fill="black"/>
<path d="M237.019 77.616C237.199 76.8316 237.547 76.2143 238.036 75.7643C238.539 75.3142 239.234 75.0828 240.149 75.0828C241.064 75.0828 241.76 75.3142 242.249 75.7643C242.752 76.2143 243.099 76.8444 243.28 77.6288C243.46 78.4132 243.55 79.3776 243.55 80.5092C243.55 81.6408 243.46 82.6309 243.28 83.4282C243.099 84.2125 242.752 84.8426 242.249 85.3055C241.747 85.7685 241.051 85.9999 240.149 85.9999C239.247 85.9999 238.526 85.7685 238.036 85.3055C237.534 84.8426 237.199 84.2254 237.019 83.4282C236.838 82.6438 236.748 81.6665 236.748 80.5092C236.748 79.3519 236.838 78.4003 237.019 77.6288V77.616ZM243.009 77.7574C242.842 77.0245 242.545 76.4329 242.095 76.0086C241.644 75.5843 240.999 75.3657 240.162 75.3657C239.325 75.3657 238.68 75.5843 238.23 76.0086C237.779 76.4329 237.469 77.0245 237.315 77.7574C237.147 78.4904 237.07 79.4162 237.07 80.5092C237.07 81.6022 237.147 82.5409 237.315 83.2867C237.482 84.0325 237.779 84.624 238.23 85.0612C238.68 85.4984 239.325 85.717 240.162 85.717C240.999 85.717 241.644 85.4984 242.095 85.0612C242.545 84.624 242.855 84.0325 243.009 83.2867C243.177 82.5409 243.254 81.6151 243.254 80.5092C243.254 79.4033 243.177 78.5032 243.009 77.7574Z" fill="black"/>
<path d="M257.683 81.8208C258.843 80.5092 259.422 79.2491 259.422 78.0532C259.422 77.2688 259.203 76.613 258.778 76.1115C258.353 75.61 257.657 75.3528 256.678 75.3528C255.699 75.3528 254.939 75.6486 254.424 76.2401C253.895 76.8316 253.599 77.616 253.535 78.5804H253.225C253.303 77.4874 253.651 76.6259 254.256 76.0086C254.862 75.3914 255.673 75.0699 256.678 75.0699C257.541 75.0699 258.263 75.3143 258.843 75.7772C259.422 76.253 259.719 77.0116 259.719 78.0403C259.719 78.9405 259.396 79.8663 258.765 80.8307C258.134 81.7951 257.335 82.6824 256.395 83.5054C255.454 84.3283 254.514 85.0227 253.56 85.5756H260.079V85.8457H252.981V85.6785C254.952 84.4055 256.524 83.1067 257.683 81.7951V81.8208Z" fill="black"/>
<path d="M276.093 75.4557H269.986V80.3163C270.283 79.8791 270.708 79.5319 271.275 79.2747C271.841 79.0176 272.46 78.8761 273.13 78.8761C274.302 78.8761 275.178 79.1976 275.758 79.8534C276.325 80.5092 276.621 81.3193 276.621 82.2837C276.621 82.9524 276.505 83.5696 276.26 84.1225C276.016 84.6755 275.629 85.1255 275.101 85.4599C274.573 85.7942 273.903 85.9742 273.091 85.9742C272.138 85.9742 271.339 85.7042 270.708 85.1641C270.076 84.624 269.677 83.8911 269.535 82.9524H269.845C270.012 83.8268 270.399 84.5083 270.965 84.9712C271.545 85.4341 272.254 85.6656 273.078 85.6656C274.148 85.6656 274.959 85.357 275.513 84.7269C276.054 84.1097 276.338 83.2867 276.338 82.2709C276.338 81.255 276.067 80.5349 275.513 79.9691C274.959 79.4033 274.173 79.1204 273.168 79.1204C272.473 79.1204 271.841 79.2619 271.287 79.5576C270.734 79.8534 270.296 80.2649 269.999 80.7921H269.729V75.1599H276.144V75.4299L276.093 75.4557Z" fill="black"/>
</g>
<defs>
<clipPath id="clip0_1_441">
<rect width="276.032" height="86" fill="white" transform="translate(0.575928)"/>
</clipPath>
</defs>
</svg>
