<svg width="141" height="44" viewBox="0 0 141 44" fill="none" xmlns="http://www.w3.org/2000/svg">
<g clip-path="url(#clip0_1_366)">
<path d="M26.7707 18.9671C27.8762 20.4145 28.429 22.0855 28.429 23.9868C28.429 26.8816 27.4748 29.1118 25.5598 30.6842C23.6448 32.2566 20.9006 33.0395 17.3206 33.0395H0V0H16.8534C20.2096 0 22.8551 0.730263 24.7833 2.19079C26.7114 3.65132 27.6788 5.78289 27.6788 8.58553C27.6788 10.5132 27.1721 12.1382 26.1586 13.4605C25.1452 14.7829 23.8027 15.6645 22.118 16.0987C24.112 16.5658 25.6585 17.5197 26.7641 18.9671H26.7707ZM10.3647 12.8816H14.379C15.3135 12.8816 16.0045 12.6974 16.4586 12.3224C16.9126 11.9474 17.1364 11.375 17.1364 10.5987C17.1364 9.82237 16.9126 9.19079 16.4586 8.80263C16.0045 8.41447 15.3135 8.2171 14.379 8.2171H10.3647V12.8816ZM17.1561 24.1974C17.6102 23.8421 17.8339 23.2566 17.8339 22.4474C17.8339 20.8618 16.9126 20.0658 15.0832 20.0658H10.3713V24.7303H15.0832C16.0176 24.7303 16.7086 24.5526 17.1627 24.1908L17.1561 24.1974Z" fill="black"/>
<path d="M54.7324 17.0066C53.765 18.7039 52.3436 20.0461 50.4615 21.0461C48.5794 22.0395 46.2959 22.5395 43.6241 22.5395H39.5176V33.0395H29.1529V0H43.6241C47.6712 0 50.7708 1.02632 52.9359 3.07895C55.1009 5.13158 56.1802 7.88816 56.1802 11.3355C56.1802 13.4211 55.6998 15.3092 54.7324 17.0066ZM45.6773 11.3421C45.6773 9.32237 44.6046 8.30921 42.4592 8.30921H39.5176V14.375H42.4592C44.6046 14.375 45.6773 13.3618 45.6773 11.3421Z" fill="black"/>
<path d="M57.0226 0V33.0395H140.75V0H57.0226ZM131.899 27.0066C130.359 28.5197 128.246 29.2763 125.562 29.2763C123.6 29.2763 121.909 28.9342 120.488 28.25C119.066 27.5658 117.98 26.6184 117.243 25.4145C116.908 24.8618 116.651 24.2763 116.48 23.6579V28.9342H98.8106V23.9079C98.4947 24.5724 98.1328 25.1776 97.7182 25.7368C96.0335 28.0066 93.4538 29.1382 89.9923 29.1382C86.5308 29.1382 83.9248 28.0066 82.2533 25.7368C81.9111 25.2763 81.6216 24.7763 81.3452 24.25V28.9342H63.6758V23.2303C66.7292 20.9539 69.1444 18.8882 70.9212 17.0263C72.698 15.1711 73.5864 13.4342 73.5864 11.8158C73.5864 11.2697 73.468 10.8487 73.2245 10.5526C72.9876 10.2566 72.6717 10.1118 72.2834 10.1118C71.8294 10.1118 71.4674 10.3487 71.2042 10.8092C70.941 11.2763 70.8422 11.9868 70.9146 12.9474H63.5639C63.6297 10.8289 64.0904 9.08553 64.9459 7.7171C65.8014 6.34868 66.9135 5.34868 68.2757 4.71053C69.6445 4.07237 71.145 3.75658 72.7902 3.75658C75.7054 3.75658 77.8442 4.46053 79.1998 5.85526C80.1277 6.80921 80.7266 7.95395 81.0227 9.28289C81.3649 8.5 81.7664 7.7829 82.2402 7.13816C83.9117 4.88158 86.4979 3.75658 89.9792 3.75658C93.4604 3.75658 96.0203 4.88816 97.705 7.15789C98.2907 7.94737 98.7711 8.84868 99.1594 9.8421C99.3831 9.05921 99.6924 8.34868 100.081 7.72368C100.936 6.35526 102.048 5.35526 103.411 4.71711C104.779 4.07895 106.28 3.76316 107.925 3.76316C110.84 3.76316 112.979 4.46711 114.335 5.86184C115.335 6.89474 115.967 8.14474 116.223 9.60526V4.30263H132.971V10.9671H123.061V13.8355C123.495 13.4474 124.055 13.1382 124.752 12.9145C125.45 12.6842 126.226 12.5724 127.095 12.5724C128.641 12.5724 129.957 12.9342 131.024 13.6645C132.096 14.3947 132.893 15.3684 133.419 16.5855C133.945 17.8026 134.202 19.1513 134.202 20.6316C134.202 23.3684 133.432 25.4868 131.892 27.0066H131.899Z" fill="black"/>
<path d="M79.0287 17.7171C77.5612 19.7303 75.7186 21.4342 73.5074 22.8224H80.7002C80.0685 21.0658 79.746 19 79.7329 16.625C79.5157 16.9934 79.2854 17.3553 79.0287 17.7171Z" fill="black"/>
<path d="M125.081 18.4869C124.601 18.4869 124.239 18.5987 123.989 18.829C123.739 19.0593 123.614 19.3224 123.614 19.6185H116.23V12.9672C115.954 14.6316 115.263 16.2172 114.17 17.7237C112.703 19.7369 110.86 21.4408 108.649 22.829H116.296C116.217 22.3356 116.184 21.8224 116.197 21.2895H123.581C123.581 21.6514 123.706 21.9935 123.956 22.3158C124.206 22.6382 124.614 22.7961 125.186 22.7961C125.759 22.7961 126.18 22.5922 126.45 22.1843C126.726 21.7764 126.858 21.2172 126.858 20.5132C126.858 19.8553 126.707 19.3487 126.397 19.0066C126.088 18.6645 125.654 18.4935 125.081 18.4935V18.4869Z" fill="black"/>
<path d="M89.9858 10.9342C88.8473 10.9342 88.0971 11.3947 87.7286 12.3158C87.3666 13.2368 87.1824 14.6118 87.1824 16.4342C87.1824 18.2566 87.3666 19.6645 87.7286 20.5855C88.0905 21.5066 88.8473 21.9671 89.9858 21.9671C91.1243 21.9671 91.8416 21.5066 92.2101 20.5855C92.572 19.6645 92.7563 18.2763 92.7563 16.4342C92.7563 14.5921 92.572 13.2368 92.2101 12.3158C91.8482 11.3947 91.1045 10.9342 89.9858 10.9342Z" fill="black"/>
<path d="M108.353 10.5592C108.116 10.2631 107.8 10.1184 107.412 10.1184C106.958 10.1184 106.596 10.3553 106.332 10.8158C106.069 11.2829 105.971 11.9934 106.043 12.9539H99.9688C100.14 14.0329 100.239 15.1908 100.239 16.4408C100.239 18.9408 99.8964 21.0987 99.2186 22.9276C102.075 20.7763 104.352 18.8092 106.049 17.0395C107.826 15.1842 108.715 13.4474 108.715 11.8289C108.715 11.2829 108.596 10.8618 108.353 10.5658V10.5592Z" fill="black"/>
<path d="M3.5997 41.5723C3.81687 41.8289 3.92874 42.1315 3.92874 42.4736C3.92874 42.9012 3.78396 43.2565 3.48783 43.5263C3.19169 43.796 2.76394 43.9341 2.19799 43.9341H0.625183V38.467H2.19141C2.73762 38.467 3.13905 38.592 3.40228 38.8355C3.66551 39.0789 3.79712 39.4013 3.79712 39.8026C3.79712 40.1644 3.69841 40.4539 3.50757 40.671C3.31015 40.8881 3.07324 41.0263 2.78368 41.092C3.11272 41.1513 3.38253 41.3157 3.5997 41.5723ZM0.783122 41.0131H2.24406C2.69813 41.0131 3.04691 40.9078 3.2904 40.6907C3.53389 40.4736 3.65235 40.1776 3.65235 39.8026C3.65235 39.4276 3.53389 39.1512 3.29698 38.9407C3.06008 38.7302 2.69155 38.6249 2.20457 38.6249H0.783122V41.0197V41.0131ZM3.35621 43.4276C3.6326 43.1973 3.7708 42.8749 3.7708 42.4736C3.7708 42.0723 3.62602 41.7565 3.34305 41.5197C3.06008 41.2828 2.67181 41.1644 2.17825 41.1644H0.783122V43.7763H2.19799C2.69813 43.7763 3.07982 43.6578 3.35621 43.4276Z" fill="black"/>
<path d="M9.01568 43.796H11.1149V43.9341H8.86432V38.467H9.02226V43.796H9.01568Z" fill="black"/>
<path d="M18.8408 42.4275H16.1361L15.5635 43.9341H15.3859L17.4127 38.6315H17.5707L19.591 43.9341H19.4133L18.8474 42.4275H18.8408ZM18.7881 42.2894L17.4917 38.8815L16.1953 42.2894H18.7881Z" fill="black"/>
<path d="M24.4937 39.7631C24.7109 39.3421 25.0136 39.0131 25.4019 38.7697C25.7901 38.5329 26.2311 38.4144 26.7114 38.4144C27.3498 38.4144 27.8763 38.5592 28.2908 38.8552C28.7054 39.1513 29.0147 39.5592 29.2056 40.0855H29.0476C28.8831 39.625 28.6001 39.2565 28.1987 38.9736C27.7973 38.6973 27.3037 38.5526 26.7049 38.5526C26.2574 38.5526 25.8559 38.6579 25.494 38.875C25.1321 39.0921 24.8425 39.4013 24.6385 39.796C24.4279 40.1973 24.3226 40.6644 24.3226 41.2039C24.3226 41.7434 24.4279 42.2039 24.6385 42.6052C24.8491 43.0065 25.1386 43.3092 25.5006 43.5263C25.8625 43.7434 26.2705 43.8486 26.7114 43.8486C27.3037 43.8486 27.8039 43.7105 28.2053 43.4342C28.6067 43.1578 28.8831 42.7894 29.0542 42.3289H29.2121C29.0213 42.8486 28.7186 43.2565 28.2974 43.5526C27.8828 43.8486 27.3564 43.9934 26.718 43.9934C26.2311 43.9934 25.7967 43.875 25.4085 43.6381C25.0202 43.4013 24.7175 43.0723 24.5003 42.6513C24.2831 42.2302 24.1713 41.75 24.1713 41.2105C24.1713 40.671 24.2831 40.1842 24.5003 39.7631H24.4937Z" fill="black"/>
<path d="M34.4702 41.2039L37.2407 43.9407H37.0301L34.3715 41.3289V43.9407H34.2136V38.4736H34.3715V41.0986L37.0301 38.4736H37.2407L34.4702 41.2039Z" fill="black"/>
<path d="M50.7642 41.0986C50.468 41.3486 50.0337 41.4736 49.4612 41.4736H48.2306V43.9341H48.0726V38.467H49.4546C50.0534 38.467 50.4944 38.5986 50.7773 38.8618C51.0603 39.1249 51.1985 39.4934 51.1985 39.9736C51.1985 40.4736 51.0537 40.8486 50.7576 41.0986H50.7642ZM50.6786 40.9605C50.9287 40.7302 51.0537 40.4012 51.0537 39.9736C51.0537 39.5262 50.9287 39.1907 50.6786 38.967C50.4286 38.7368 50.0205 38.6249 49.4612 38.6249H48.2306V41.3091H49.4612C50.0205 41.3091 50.4286 41.1907 50.6786 40.9605Z" fill="black"/>
<path d="M59.056 43.9341L57.5951 41.5526H56.2197V43.9341H56.0618V38.467H57.4306C58.0294 38.467 58.4769 38.6052 58.773 38.8815C59.0626 39.1578 59.214 39.5328 59.214 40.0065C59.214 40.4473 59.0889 40.796 58.8389 41.0657C58.5888 41.3289 58.2334 41.4868 57.7728 41.5394L59.2469 43.9407H59.056V43.9341ZM57.4437 41.4013C57.9768 41.4013 58.3782 41.2762 58.6414 41.0197C58.9047 40.7631 59.0429 40.4276 59.0429 39.9999C59.0429 39.0789 58.5032 38.6184 57.424 38.6184H56.2131V41.4013H57.4437Z" fill="black"/>
<path d="M65.1695 43.6447C64.7747 43.4078 64.4654 43.0789 64.2416 42.6578C64.0179 42.2302 63.906 41.75 63.906 41.2105C63.906 40.671 64.0179 40.1907 64.2416 39.7631C64.4654 39.3355 64.7747 39.0065 65.1695 38.7697C65.5644 38.5329 66.0119 38.4144 66.5186 38.4144C67.0253 38.4144 67.4728 38.5329 67.8676 38.7697C68.2625 39.0065 68.5718 39.3355 68.7955 39.7631C69.0193 40.1907 69.1312 40.671 69.1312 41.2105C69.1312 41.75 69.0193 42.2302 68.7955 42.6578C68.5718 43.0855 68.2625 43.4144 67.8676 43.6447C67.4728 43.8815 67.0253 44 66.5186 44C66.0119 44 65.5644 43.8815 65.1695 43.6447ZM67.7623 43.5328C68.1375 43.3157 68.427 43.0065 68.6442 42.6118C68.8613 42.2105 68.9666 41.7434 68.9666 41.2105C68.9666 40.6776 68.8613 40.2105 68.6442 39.8092C68.427 39.4078 68.1375 39.0986 67.7623 38.8881C67.3872 38.671 66.9727 38.5657 66.5186 38.5657C66.0645 38.5657 65.6499 38.671 65.2748 38.8881C64.8997 39.1052 64.6101 39.4078 64.393 39.8092C64.1758 40.2105 64.0705 40.6776 64.0705 41.2105C64.0705 41.7434 64.1758 42.2105 64.393 42.6118C64.6101 43.0131 64.8997 43.3223 65.2748 43.5328C65.6499 43.75 66.0645 43.8552 66.5186 43.8552C66.9727 43.8552 67.3872 43.75 67.7623 43.5328Z" fill="black"/>
<path d="M76.1661 38.467V42.8223C76.1661 43.1578 76.0608 43.4341 75.8502 43.6578C75.6396 43.8749 75.35 43.9868 74.9749 43.9868C74.5735 43.9868 74.2576 43.8618 74.0405 43.6118C73.8233 43.3618 73.7114 43.0197 73.7114 42.5855H73.8694C73.8694 42.9473 73.9549 43.2499 74.1326 43.4868C74.3103 43.7236 74.5933 43.842 74.9815 43.842C75.35 43.842 75.6133 43.7433 75.7712 43.5328C75.9292 43.3289 76.0147 43.092 76.0147 42.8157V38.4604H76.1726L76.1661 38.467Z" fill="black"/>
<path d="M81.49 38.6052V41.1315H83.7735V41.2697H81.49V43.796H84.0038V43.9341H81.332V38.467H84.0038V38.6052H81.49Z" fill="black"/>
<path d="M89.071 39.7631C89.2882 39.3421 89.5909 39.0131 89.9791 38.7697C90.3674 38.5329 90.8083 38.4144 91.2887 38.4144C91.9271 38.4144 92.4535 38.5592 92.8681 38.8552C93.2827 39.1513 93.592 39.5592 93.7828 40.0855H93.6249C93.4604 39.625 93.1774 39.2565 92.776 38.9736C92.3745 38.6973 91.881 38.5526 91.2821 38.5526C90.8346 38.5526 90.4332 38.6579 90.0713 38.875C89.7093 39.0921 89.4198 39.4013 89.2158 39.796C89.0052 40.1973 88.8999 40.6644 88.8999 41.2039C88.8999 41.7434 89.0052 42.2039 89.2158 42.6052C89.4264 43.0065 89.7159 43.3092 90.0779 43.5263C90.4398 43.7434 90.8478 43.8486 91.2887 43.8486C91.881 43.8486 92.3811 43.7105 92.7826 43.4342C93.184 43.1578 93.4604 42.7894 93.6315 42.3289H93.7894C93.5986 42.8486 93.2959 43.2565 92.8747 43.5526C92.4601 43.8486 91.9336 43.9934 91.2953 43.9934C90.8083 43.9934 90.374 43.875 89.9857 43.6381C89.5975 43.4013 89.2947 43.0723 89.0776 42.6513C88.8604 42.2302 88.7485 41.75 88.7485 41.2105C88.7485 40.671 88.8604 40.1842 89.0776 39.7631H89.071Z" fill="black"/>
<path d="M101.627 38.467V38.6052H100.035V43.9341H99.8766V38.6052H98.2841V38.467H101.627Z" fill="black"/>
<path d="M114.591 41.8618C115.184 41.1907 115.48 40.546 115.48 39.9342C115.48 39.5328 115.368 39.1973 115.151 38.9407C114.934 38.6842 114.578 38.5526 114.078 38.5526C113.578 38.5526 113.19 38.7039 112.926 39.0065C112.657 39.3092 112.505 39.7105 112.472 40.2039H112.314C112.354 39.6447 112.532 39.2039 112.841 38.8881C113.15 38.5723 113.565 38.4078 114.078 38.4078C114.519 38.4078 114.887 38.5328 115.184 38.7697C115.48 39.0131 115.631 39.4013 115.631 39.9276C115.631 40.3881 115.467 40.8618 115.144 41.3552C114.822 41.8486 114.414 42.3026 113.933 42.7236C113.453 43.1447 112.972 43.4999 112.485 43.7828H115.815V43.921H112.189V43.8355C113.196 43.1842 113.999 42.5197 114.591 41.8486V41.8618Z" fill="black"/>
<path d="M120.777 39.7105C120.869 39.3092 121.047 38.9934 121.297 38.7631C121.554 38.5328 121.909 38.4144 122.376 38.4144C122.844 38.4144 123.199 38.5328 123.449 38.7631C123.706 38.9934 123.883 39.3157 123.975 39.7171C124.068 40.1184 124.114 40.6118 124.114 41.1907C124.114 41.7697 124.068 42.2763 123.975 42.6842C123.883 43.0855 123.706 43.4078 123.449 43.6447C123.192 43.8815 122.837 44 122.376 44C121.916 44 121.547 43.8815 121.297 43.6447C121.04 43.4078 120.869 43.0921 120.777 42.6842C120.685 42.2828 120.639 41.7829 120.639 41.1907C120.639 40.5986 120.685 40.1118 120.777 39.7171V39.7105ZM123.837 39.7829C123.752 39.4079 123.6 39.1052 123.37 38.8881C123.14 38.671 122.811 38.5592 122.383 38.5592C121.955 38.5592 121.626 38.671 121.396 38.8881C121.165 39.1052 121.008 39.4079 120.929 39.7829C120.843 40.1579 120.804 40.6315 120.804 41.1907C120.804 41.75 120.843 42.2302 120.929 42.6118C121.014 42.9934 121.165 43.296 121.396 43.5197C121.626 43.7434 121.955 43.8552 122.383 43.8552C122.811 43.8552 123.14 43.7434 123.37 43.5197C123.6 43.296 123.758 42.9934 123.837 42.6118C123.923 42.2302 123.962 41.7565 123.962 41.1907C123.962 40.625 123.923 40.1644 123.837 39.7829Z" fill="black"/>
<path d="M131.333 41.8618C131.925 41.1907 132.221 40.546 132.221 39.9342C132.221 39.5328 132.109 39.1973 131.892 38.9407C131.675 38.6842 131.32 38.5526 130.82 38.5526C130.319 38.5526 129.931 38.7039 129.668 39.0065C129.398 39.3092 129.247 39.7105 129.214 40.2039H129.056C129.095 39.6447 129.273 39.2039 129.582 38.8881C129.892 38.5723 130.306 38.4078 130.82 38.4078C131.261 38.4078 131.629 38.5328 131.925 38.7697C132.221 39.0131 132.373 39.4013 132.373 39.9276C132.373 40.3881 132.208 40.8618 131.886 41.3552C131.563 41.8486 131.155 42.3026 130.675 42.7236C130.194 43.1447 129.714 43.4999 129.227 43.7828H132.557V43.921H128.931V43.8355C129.938 43.1842 130.741 42.5197 131.333 41.8486V41.8618Z" fill="black"/>
<path d="M140.737 38.6052H137.618V41.092C137.769 40.8683 137.986 40.6907 138.276 40.5591C138.565 40.4275 138.881 40.3552 139.223 40.3552C139.822 40.3552 140.27 40.5196 140.566 40.8552C140.855 41.1907 141.007 41.6052 141.007 42.0986C141.007 42.4407 140.947 42.7565 140.822 43.0394C140.697 43.3223 140.5 43.5525 140.23 43.7236C139.96 43.8946 139.618 43.9868 139.204 43.9868C138.717 43.9868 138.309 43.8486 137.986 43.5723C137.664 43.296 137.46 42.921 137.387 42.4407H137.545C137.631 42.8881 137.828 43.2368 138.118 43.4736C138.414 43.7104 138.776 43.8289 139.197 43.8289C139.743 43.8289 140.158 43.671 140.441 43.3486C140.717 43.0328 140.862 42.6118 140.862 42.092C140.862 41.5723 140.724 41.2039 140.441 40.9144C140.158 40.6249 139.756 40.4802 139.243 40.4802C138.888 40.4802 138.565 40.5525 138.282 40.7039C137.999 40.8552 137.775 41.0657 137.624 41.3354H137.486V38.4539H140.763V38.592L140.737 38.6052Z" fill="black"/>
</g>
<defs>
<clipPath id="clip0_1_366">
<rect width="141" height="44" fill="white"/>
</clipPath>
</defs>
</svg>
