<svg width="19" height="22" viewBox="0 0 19 22" fill="none" xmlns="http://www.w3.org/2000/svg">
<mask id="mask0_2003_1353" style="mask-type:luminance" maskUnits="userSpaceOnUse" x="0" y="-1" width="19" height="24">
<path d="M18.963 -0.00488281H0.474609V22.0051H18.963V-0.00488281Z" fill="white"/>
</mask>
<g mask="url(#mask0_2003_1353)">
<path fill-rule="evenodd" clip-rule="evenodd" d="M11.6115 7.83948C12.2806 7.50493 13.1434 7.01191 13.9974 6.334C14.1823 6.71257 14.1999 7.03832 14.1031 7.30244C14.0414 7.48732 13.9094 7.6546 13.7509 7.77785C13.5748 7.91872 13.3547 8.01556 13.1082 8.07719C12.6416 8.18284 12.1046 8.12121 11.6115 7.83948ZM11.726 11.273L12.6152 11.7837C10.7928 12.8049 10.2997 14.6978 9.70987 16.5378C9.12 14.689 8.62698 12.7961 6.80455 11.7837L7.69375 11.273C7.78179 11.2378 7.85222 11.185 7.90505 11.1058C7.95787 11.0265 7.98428 10.9385 7.97548 10.8416C7.89624 9.11606 8.36286 8.35011 8.98794 7.8747C9.21684 7.69862 9.46336 7.61938 9.70106 7.61938C9.93877 7.61938 10.1941 7.70742 10.4142 7.8747C11.0393 8.35011 11.5059 9.11606 11.4266 10.8416C11.4266 10.9297 11.4443 11.0265 11.4971 11.1058C11.5499 11.185 11.6203 11.2378 11.7084 11.273H11.726ZM9.71867 -0.00488281C10.7487 0.0215292 11.7788 0.224021 12.6768 0.611397C13.2931 0.884321 13.8742 1.23648 14.4024 1.66788C14.6401 1.86157 14.8338 2.04645 15.0451 2.25775C15.6262 2.27535 16.4713 1.63266 16.8675 1.03399C16.1896 3.2526 13.1082 5.86739 10.9688 6.87104C10.5815 6.58051 10.1501 6.43084 9.71867 6.43084C9.28728 6.43084 8.85588 6.58051 8.4685 6.87104C6.32913 5.86739 3.24773 3.24379 2.56982 1.03399C2.966 1.63266 3.81119 2.28416 4.39225 2.25775C4.60355 2.04645 4.80604 1.86157 5.03494 1.66788C5.56318 1.24529 6.13544 0.884321 6.76053 0.611397C7.65854 0.224021 8.6886 0.0215292 9.71867 -0.00488281ZM7.82581 7.83948C7.15671 7.50493 6.29392 7.01191 5.43993 6.334C5.25504 6.71257 5.23744 7.03832 5.33428 7.30244C5.40471 7.48732 5.52797 7.6546 5.68644 7.77785C5.86252 7.91872 6.08262 8.01556 6.32913 8.07719C6.79574 8.18284 7.33279 8.12121 7.82581 7.83948Z" fill="white"/>
<path fill-rule="evenodd" clip-rule="evenodd" d="M14.9396 5.49761C15.415 5.0222 15.8288 4.49396 16.1634 4.02734L16.3306 4.34429C16.8765 5.43598 17.1582 6.52768 17.1582 7.75144V9.69712L17.167 10.7096C17.211 13.1835 17.7393 15.6926 18.9542 17.9905L16.4099 15.9392L14.6139 18.8533L12.721 17.0749L9.70123 21.9699L6.68146 17.0749L4.7974 18.8533L3.00139 15.9392L0.457031 17.9905C1.67198 15.6926 2.20903 13.1923 2.24424 10.7096V9.69712L2.25305 7.75144C2.25305 6.52768 2.53478 5.43598 3.08062 4.34429L3.2479 4.02734C3.58245 4.49396 3.99624 5.0222 4.47166 5.49761L4.32199 5.80575C4.03146 6.40442 3.94342 7.06472 4.16352 7.69861C4.30438 8.1036 4.5685 8.45576 4.91186 8.71988C5.2376 8.97519 5.63378 9.15127 6.03877 9.24812C6.30289 9.30974 6.57581 9.33616 6.83993 9.32735C6.7783 9.67951 6.75189 10.0493 6.75189 10.4279L4.3572 11.8101L6.20604 12.849C6.35571 12.9282 6.49657 13.025 6.62863 13.1307C8.15173 14.4953 9.06734 18.5451 9.70123 20.526C10.3351 18.5451 11.2507 14.4953 12.7738 13.1307C12.9059 13.025 13.0468 12.9282 13.1964 12.849L15.0453 11.8101L12.6506 10.4279C12.6506 10.0493 12.6242 9.68832 12.5625 9.32735C12.8355 9.32735 13.0996 9.30974 13.3637 9.24812C13.7687 9.16008 14.1561 8.984 14.4906 8.71988C14.8252 8.45576 15.0893 8.1036 15.2389 7.69861C15.459 7.06472 15.371 6.40442 15.0805 5.80575L14.9308 5.49761H14.9396Z" fill="white"/>
</g>
</svg>
