<svg width="22" height="16" viewBox="0 0 22 16" fill="none" xmlns="http://www.w3.org/2000/svg">
<path d="M0.231143 10.8356C0.370594 7.43503 1.5294 4.12583 3.44388 1.32448C4.81001 0.713343 6.24772 0.266411 7.72328 0.000555867C7.77634 -0.00479415 7.79115 0.0293637 7.81748 0.0647561C7.91991 0.202622 8.27368 1.07797 8.34032 1.10101C9.2955 1.02406 10.2474 0.908825 11.2092 0.940513L13.0948 1.1076L13.1767 1.06603C13.3273 0.787009 13.4733 0.307565 13.6531 0.0647561C13.679 0.0293637 13.6938 -0.00479415 13.7469 0.000967407C14.7699 0.187807 15.781 0.451604 16.7572 0.808409C17.0517 0.916232 17.7766 1.16604 17.9954 1.33477C18.2142 1.5035 18.6647 2.32082 18.8255 2.59778C20.5253 5.52918 21.362 8.81163 21.1987 12.2109C21.1814 12.5661 21.181 12.9233 21.1575 13.2781L21.1156 13.3591C19.5273 14.5172 17.7617 15.4234 15.8769 15.9996C15.7646 16.0016 15.3939 15.3905 15.3141 15.2654C15.0936 14.9201 14.8896 14.5538 14.7144 14.183L16.4005 13.362L16.4211 13.2563L16.0427 12.9785C12.8604 14.453 9.44236 14.5139 6.1708 13.2879C6.0334 13.2365 5.47642 12.9645 5.40032 12.9859C5.32421 13.0073 4.96551 13.2793 5.03379 13.3785L6.64469 14.1271C6.69364 14.1423 6.7138 14.1715 6.7175 14.2226C6.72614 14.3312 6.10292 15.3481 5.99268 15.5115C5.92933 15.6053 5.6784 16.0016 5.59407 16C3.7125 15.4205 1.93706 14.5246 0.355374 13.3591C0.257881 13.011 0.292847 12.6138 0.274336 12.2484C0.271868 12.1957 0.231965 12.1546 0.231554 12.1492C0.214277 11.734 0.214688 11.2508 0.231554 10.8356H0.231143ZM6.95033 6.70002C4.81947 6.99015 4.85979 10.7257 7.06345 10.9167C9.83192 11.157 9.81752 6.30946 6.95033 6.70002ZM13.9258 6.70002C11.8274 6.98562 11.8118 10.6952 14.0385 10.9171C16.8053 11.1924 16.807 6.30741 13.9258 6.70002Z" fill="white"/>
</svg>
