<svg width="277" height="86" viewBox="0 0 277 86" fill="none" xmlns="http://www.w3.org/2000/svg">
<g clip-path="url(#clip0_2004_1073)">
<path d="M52.4082 37.0721C54.5726 39.901 55.6548 43.1672 55.6548 46.8834C55.6548 52.5413 53.7867 56.9004 50.0378 59.9737C46.2888 63.047 40.9166 64.5772 33.9082 64.5772H0V0H32.9935C39.5639 0 44.7428 1.42733 48.5176 4.282C52.2923 7.13666 54.1861 11.3029 54.1861 16.7808C54.1861 20.5484 53.1941 23.7246 51.2101 26.3092C49.2261 28.8938 46.598 30.6169 43.2999 31.4656C47.2035 32.3786 50.231 34.2431 52.3954 37.0721H52.4082ZM20.2908 25.1776H28.1495C29.9789 25.1776 31.3316 24.8176 32.2205 24.0846C33.1094 23.3517 33.5475 22.233 33.5475 20.7156C33.5475 19.1983 33.1094 17.9638 32.2205 17.2051C31.3316 16.4465 29.9789 16.0607 28.1495 16.0607H20.2908V25.1776ZM33.5861 47.2949C34.475 46.6005 34.9131 45.456 34.9131 43.8744C34.9131 40.7754 33.1094 39.2195 29.528 39.2195H20.3037V48.3364H29.528C31.3573 48.3364 32.7101 47.9892 33.599 47.282L33.5861 47.2949Z" fill="white"/>
<path d="M107.148 33.2401C105.254 36.5577 102.472 39.1809 98.7871 41.1355C95.1025 43.0772 90.6321 44.0544 85.4016 44.0544H77.3626V64.5772H57.0718V0H85.4016C93.3247 0 99.3926 2.00598 103.631 6.01794C107.87 10.0299 109.982 15.4178 109.982 22.1558C109.982 26.2321 109.042 29.9226 107.148 33.2401ZM89.4211 22.1687C89.4211 18.221 87.3212 16.2407 83.1213 16.2407H77.3626V28.0966H83.1213C87.3212 28.0966 89.4211 26.1163 89.4211 22.1687Z" fill="white"/>
<path d="M111.632 0V64.5772H275.543V0H111.632ZM258.215 52.7856C255.201 55.7431 251.065 57.2219 245.809 57.2219C241.97 57.2219 238.659 56.5532 235.876 55.2159C233.093 53.8786 230.968 52.0269 229.525 49.6737C228.868 48.5936 228.365 47.4492 228.03 46.2404V56.5532H193.439V46.7291C192.821 48.0278 192.112 49.2108 191.301 50.3038C188.003 54.7401 182.952 56.9519 176.176 56.9519C169.399 56.9519 164.298 54.7401 161.025 50.3038C160.356 49.4037 159.789 48.4264 159.248 47.3977V56.5532H124.657V45.4046C130.634 40.9554 135.362 36.9178 138.841 33.2787C142.319 29.6525 144.058 26.2578 144.058 23.0945C144.058 22.0272 143.827 21.2042 143.35 20.6256C142.886 20.047 142.268 19.7641 141.508 19.7641C140.619 19.7641 139.91 20.227 139.395 21.1271C138.879 22.0401 138.686 23.4288 138.828 25.3062H124.438C124.566 21.1657 125.468 17.7581 127.143 15.0834C128.818 12.4088 130.995 10.4542 133.662 9.20694C136.342 7.95963 139.279 7.3424 142.5 7.3424C148.207 7.3424 152.394 8.7183 155.048 11.4444C156.864 13.3089 158.037 15.5464 158.616 18.1438C159.286 16.6136 160.072 15.212 161 13.9519C164.272 9.54127 169.335 7.3424 176.15 7.3424C182.965 7.3424 187.977 9.55413 191.275 13.9904C192.421 15.5335 193.362 17.2952 194.122 19.2368C194.56 17.7066 195.166 16.3179 195.926 15.0963C197.6 12.4217 199.778 10.4671 202.444 9.2198C205.124 7.97249 208.061 7.35526 211.282 7.35526C216.989 7.35526 221.176 8.73116 223.83 11.4572C225.789 13.4761 227.025 15.9193 227.528 18.7739V8.40969H260.315V21.4357H240.913V27.0422C241.764 26.2835 242.859 25.6791 244.224 25.2419C245.59 24.7919 247.11 24.5733 248.811 24.5733C251.838 24.5733 254.415 25.2805 256.502 26.7078C258.602 28.1352 260.161 30.0383 261.191 32.4172C262.222 34.7961 262.724 37.4321 262.724 40.3254C262.724 45.6746 261.217 49.8152 258.202 52.7856H258.215Z" fill="white"/>
<path d="M154.713 34.6289C151.84 38.5637 148.233 41.8941 143.904 44.6074H157.985C156.748 41.174 156.117 37.1364 156.091 32.4943C155.666 33.2144 155.215 33.9217 154.713 34.6289Z" fill="white"/>
<path d="M244.868 36.1334C243.928 36.1334 243.219 36.352 242.73 36.802C242.24 37.2521 241.995 37.7664 241.995 38.3451H227.54V25.3448C226.999 28.5981 225.647 31.6971 223.508 34.6417C220.635 38.5765 217.028 41.907 212.699 44.6202H227.669C227.515 43.6558 227.45 42.6528 227.476 41.6112H241.931C241.931 42.3185 242.176 42.9871 242.665 43.6172C243.155 44.2473 243.953 44.5559 245.074 44.5559C246.195 44.5559 247.02 44.1573 247.548 43.36C248.089 42.5628 248.347 41.4698 248.347 40.0939C248.347 38.808 248.05 37.8179 247.445 37.1492C246.839 36.4806 245.989 36.1462 244.868 36.1462V36.1334Z" fill="white"/>
<path d="M176.163 21.3714C173.934 21.3714 172.466 22.2715 171.744 24.0718C171.036 25.872 170.675 28.5595 170.675 32.1214C170.675 35.6833 171.036 38.4351 171.744 40.2353C172.453 42.0356 173.934 42.9357 176.163 42.9357C178.392 42.9357 179.796 42.0356 180.517 40.2353C181.226 38.4351 181.587 35.7219 181.587 32.1214C181.587 28.5209 181.226 25.872 180.517 24.0718C179.809 22.2715 178.353 21.3714 176.163 21.3714Z" fill="white"/>
<path d="M212.119 20.6385C211.656 20.0598 211.037 19.7769 210.277 19.7769C209.388 19.7769 208.68 20.2398 208.164 21.14C207.649 22.0529 207.456 23.4417 207.598 25.3191H195.706C196.041 27.4279 196.235 29.6911 196.235 32.1343C196.235 37.0206 195.565 41.2383 194.238 44.8131C199.829 40.6083 204.287 36.7635 207.61 33.3044C211.089 29.6782 212.828 26.2835 212.828 23.1202C212.828 22.0529 212.596 21.23 212.119 20.6513V20.6385Z" fill="white"/>
<path d="M7.04726 81.255C7.4724 81.7565 7.69141 82.348 7.69141 83.0167C7.69141 83.8525 7.40799 84.5469 6.82825 85.0741C6.24851 85.6013 5.41111 85.8714 4.30317 85.8714H1.22412V75.1857H4.29029C5.35958 75.1857 6.14545 75.43 6.66077 75.9058C7.17609 76.3815 7.43375 77.0116 7.43375 77.796C7.43375 78.5033 7.24051 79.069 6.8669 79.4934C6.48041 79.9177 6.01662 80.1878 5.44976 80.3163C6.09391 80.4321 6.62212 80.7535 7.04726 81.255ZM1.53331 80.162H4.39335C5.28228 80.162 5.96508 79.9563 6.44176 79.532C6.91843 79.1076 7.15033 78.529 7.15033 77.796C7.15033 77.0631 6.91843 76.523 6.45464 76.1115C5.99085 75.7 5.2694 75.4943 4.31605 75.4943H1.53331V80.1749V80.162ZM6.57059 84.8812C7.11168 84.4312 7.38222 83.8011 7.38222 83.0167C7.38222 82.2323 7.09879 81.6151 6.54482 81.1522C5.99085 80.6893 5.23075 80.4578 4.26452 80.4578H1.53331V85.5628H4.30317C5.28228 85.5628 6.0295 85.3313 6.57059 84.8812Z" fill="white"/>
<path d="M17.6498 85.6013H21.7595V85.8714H17.3535V75.1857H17.6627V85.6013H17.6498Z" fill="white"/>
<path d="M36.8842 82.9267H31.5893L30.4684 85.8714H30.1206L34.0886 75.5071H34.3978L38.3529 85.8714H38.005L36.8971 82.9267H36.8842ZM36.7811 82.6567L34.2432 75.9958L31.7052 82.6567H36.7811Z" fill="white"/>
<path d="M47.9511 77.7189C48.3762 76.8959 48.9689 76.253 49.729 75.7772C50.4891 75.3143 51.3522 75.0828 52.2927 75.0828C53.5423 75.0828 54.573 75.3657 55.3846 75.9444C56.1962 76.523 56.8018 77.3203 57.1754 78.349H56.8662C56.5441 77.4489 55.9901 76.7288 55.2043 76.1758C54.4184 75.6358 53.4522 75.3529 52.2798 75.3529C51.4038 75.3529 50.6179 75.5586 49.9093 75.9829C49.2008 76.4073 48.6339 77.0117 48.2345 77.7832C47.8223 78.5676 47.6161 79.4806 47.6161 80.535C47.6161 81.5894 47.8223 82.4895 48.2345 83.2739C48.6468 84.0583 49.2136 84.6498 49.9222 85.0742C50.6308 85.4985 51.4295 85.7042 52.2927 85.7042C53.4522 85.7042 54.4313 85.4342 55.2171 84.8941C56.003 84.3541 56.5441 83.634 56.8791 82.7338H57.1882C56.8146 83.7497 56.222 84.5469 55.3975 85.1256C54.5859 85.7042 53.5552 85.9871 52.3056 85.9871C51.3522 85.9871 50.5019 85.7557 49.7418 85.2928C48.9817 84.8298 48.3891 84.1869 47.964 83.3639C47.5388 82.541 47.3198 81.6023 47.3198 80.5478C47.3198 79.4934 47.5388 78.5419 47.964 77.7189H47.9511Z" fill="white"/>
<path d="M67.4814 80.535L72.9052 85.8843H72.4929L67.2882 80.7793V85.8843H66.979V75.1985H67.2882V80.3292L72.4929 75.1985H72.9052L67.4814 80.535Z" fill="white"/>
<path d="M99.38 80.3292C98.8003 80.8178 97.95 81.0622 96.8292 81.0622H94.42V85.8714H94.1108V75.1857H96.8163C97.9886 75.1857 98.8518 75.4428 99.4058 75.9572C99.9597 76.4716 100.23 77.1916 100.23 78.1303C100.23 79.1076 99.9469 79.8406 99.3671 80.3292H99.38ZM99.2125 80.0592C99.7021 79.6091 99.9469 78.9662 99.9469 78.1303C99.9469 77.2559 99.7021 76.6001 99.2125 76.1629C98.723 75.7129 97.9242 75.4943 96.8292 75.4943H94.42V80.7407H96.8292C97.9242 80.7407 98.723 80.5092 99.2125 80.0592Z" fill="white"/>
<path d="M115.613 85.8714L112.753 81.2165H110.06V85.8714H109.751V75.1857H112.431C113.603 75.1857 114.479 75.4557 115.059 75.9958C115.626 76.5358 115.922 77.2688 115.922 78.1946C115.922 79.0562 115.677 79.7377 115.188 80.2649C114.698 80.7793 114.002 81.0879 113.101 81.1908L115.986 85.8842H115.613V85.8714ZM112.456 80.9207C113.5 80.9207 114.286 80.6764 114.801 80.1749C115.316 79.6734 115.587 79.0176 115.587 78.1818C115.587 76.3815 114.531 75.4814 112.418 75.4814H110.047V80.9207H112.456Z" fill="white"/>
<path d="M127.581 85.3056C126.808 84.8427 126.202 84.1997 125.764 83.3768C125.326 82.541 125.107 81.6023 125.107 80.5478C125.107 79.4934 125.326 78.5547 125.764 77.7189C126.202 76.8831 126.808 76.2401 127.581 75.7772C128.354 75.3143 129.23 75.0828 130.222 75.0828C131.214 75.0828 132.09 75.3143 132.863 75.7772C133.636 76.2401 134.242 76.8831 134.68 77.7189C135.118 78.5547 135.337 79.4934 135.337 80.5478C135.337 81.6023 135.118 82.541 134.68 83.3768C134.242 84.2126 133.636 84.8555 132.863 85.3056C132.09 85.7685 131.214 86 130.222 86C129.23 86 128.354 85.7685 127.581 85.3056ZM132.657 85.087C133.391 84.6627 133.958 84.0583 134.383 83.2868C134.808 82.5024 135.014 81.5894 135.014 80.5478C135.014 79.5063 134.808 78.5933 134.383 77.8089C133.958 77.0245 133.391 76.4201 132.657 76.0087C131.923 75.5843 131.111 75.3786 130.222 75.3786C129.333 75.3786 128.521 75.5843 127.787 76.0087C127.053 76.433 126.486 77.0245 126.061 77.8089C125.636 78.5933 125.429 79.5063 125.429 80.5478C125.429 81.5894 125.636 82.5024 126.061 83.2868C126.486 84.0712 127.053 84.6755 127.787 85.087C128.521 85.5114 129.333 85.7171 130.222 85.7171C131.111 85.7171 131.923 85.5114 132.657 85.087Z" fill="white"/>
<path d="M149.109 75.1857V83.6982C149.109 84.354 148.902 84.8941 148.49 85.3313C148.078 85.7556 147.511 85.9742 146.777 85.9742C145.991 85.9742 145.373 85.7299 144.947 85.2413C144.522 84.7526 144.303 84.084 144.303 83.2353H144.612C144.612 83.9425 144.78 84.534 145.128 84.997C145.476 85.4599 146.03 85.6913 146.79 85.6913C147.511 85.6913 148.026 85.4984 148.336 85.087C148.645 84.6883 148.812 84.2254 148.812 83.6854V75.1728H149.121L149.109 75.1857Z" fill="white"/>
<path d="M159.531 75.4557V80.3935H164.001V80.6635H159.531V85.6013H164.452V85.8714H159.222V75.1857H164.452V75.4557H159.531Z" fill="white"/>
<path d="M174.372 77.7189C174.798 76.8959 175.39 76.253 176.15 75.7772C176.91 75.3143 177.774 75.0828 178.714 75.0828C179.964 75.0828 180.994 75.3657 181.806 75.9444C182.618 76.523 183.223 77.3203 183.597 78.349H183.288C182.965 77.4489 182.411 76.7288 181.626 76.1758C180.84 75.6358 179.874 75.3529 178.701 75.3529C177.825 75.3529 177.039 75.5586 176.331 75.9829C175.622 76.4073 175.055 77.0117 174.656 77.7832C174.244 78.5676 174.038 79.4806 174.038 80.535C174.038 81.5894 174.244 82.4895 174.656 83.2739C175.068 84.0583 175.635 84.6498 176.344 85.0742C177.052 85.4985 177.851 85.7042 178.714 85.7042C179.874 85.7042 180.853 85.4342 181.639 84.8941C182.424 84.3541 182.965 83.634 183.3 82.7338H183.61C183.236 83.7497 182.643 84.5469 181.819 85.1256C181.007 85.7042 179.977 85.9871 178.727 85.9871C177.774 85.9871 176.923 85.7557 176.163 85.2928C175.403 84.8298 174.811 84.1869 174.385 83.3639C173.96 82.541 173.741 81.6023 173.741 80.5478C173.741 79.4934 173.96 78.5419 174.385 77.7189H174.372Z" fill="white"/>
<path d="M198.953 75.1857V75.4557H195.836V85.8714H195.526V75.4557H192.409V75.1857H198.953Z" fill="white"/>
<path d="M224.333 81.8208C225.492 80.5092 226.072 79.2491 226.072 78.0532C226.072 77.2688 225.853 76.613 225.428 76.1115C225.003 75.61 224.307 75.3528 223.328 75.3528C222.349 75.3528 221.589 75.6486 221.073 76.2401C220.545 76.8316 220.249 77.616 220.184 78.5804H219.875C219.952 77.4874 220.3 76.6259 220.906 76.0086C221.511 75.3914 222.323 75.0699 223.328 75.0699C224.191 75.0699 224.912 75.3143 225.492 75.7772C226.072 76.253 226.368 77.0116 226.368 78.0403C226.368 78.9405 226.046 79.8663 225.415 80.8307C224.784 81.7951 223.985 82.6824 223.044 83.5054C222.104 84.3283 221.163 85.0227 220.21 85.5756H226.729V85.8457H219.63V85.6785C221.601 84.4055 223.173 83.1067 224.333 81.7951V81.8208Z" fill="white"/>
<path d="M236.443 77.616C236.623 76.8316 236.971 76.2144 237.461 75.7643C237.963 75.3143 238.659 75.0828 239.573 75.0828C240.488 75.0828 241.184 75.3143 241.673 75.7643C242.176 76.2144 242.524 76.8445 242.704 77.6289C242.884 78.4133 242.975 79.3777 242.975 80.5093C242.975 81.6408 242.884 82.631 242.704 83.4282C242.524 84.2126 242.176 84.8427 241.673 85.3056C241.171 85.7685 240.475 86 239.573 86C238.672 86 237.95 85.7685 237.461 85.3056C236.958 84.8427 236.623 84.2255 236.443 83.4282C236.263 82.6438 236.172 81.6666 236.172 80.5093C236.172 79.352 236.263 78.4004 236.443 77.6289V77.616ZM242.434 77.7575C242.266 77.0245 241.97 76.433 241.519 76.0087C241.068 75.5843 240.424 75.3657 239.586 75.3657C238.749 75.3657 238.105 75.5843 237.654 76.0087C237.203 76.433 236.894 77.0245 236.739 77.7575C236.572 78.4904 236.494 79.4163 236.494 80.5093C236.494 81.6023 236.572 82.541 236.739 83.2868C236.907 84.0326 237.203 84.6241 237.654 85.0613C238.105 85.4985 238.749 85.7171 239.586 85.7171C240.424 85.7171 241.068 85.4985 241.519 85.0613C241.97 84.6241 242.279 84.0326 242.434 83.2868C242.601 82.541 242.678 81.6151 242.678 80.5093C242.678 79.4034 242.601 78.5033 242.434 77.7575Z" fill="white"/>
<path d="M257.107 81.8208C258.267 80.5092 258.846 79.2491 258.846 78.0532C258.846 77.2688 258.627 76.613 258.202 76.1115C257.777 75.61 257.081 75.3528 256.102 75.3528C255.123 75.3528 254.363 75.6486 253.848 76.2401C253.319 76.8316 253.023 77.616 252.959 78.5804H252.65C252.727 77.4874 253.075 76.6259 253.68 76.0086C254.286 75.3914 255.097 75.0699 256.102 75.0699C256.965 75.0699 257.687 75.3143 258.267 75.7772C258.846 76.253 259.143 77.0116 259.143 78.0403C259.143 78.9405 258.821 79.8663 258.189 80.8307C257.558 81.7951 256.759 82.6824 255.819 83.5054C254.878 84.3283 253.938 85.0227 252.985 85.5756H259.503V85.8457H252.405V85.6785C254.376 84.4055 255.948 83.1067 257.107 81.7951V81.8208Z" fill="white"/>
<path d="M275.517 75.4557H269.411V80.3164C269.707 79.8792 270.132 79.532 270.699 79.2748C271.266 79.0176 271.884 78.8762 272.554 78.8762C273.727 78.8762 274.603 79.1976 275.182 79.8535C275.749 80.5093 276.046 81.3194 276.046 82.2838C276.046 82.9524 275.93 83.5697 275.685 84.1226C275.44 84.6755 275.054 85.1256 274.525 85.4599C273.997 85.7942 273.327 85.9743 272.516 85.9743C271.562 85.9743 270.764 85.7042 270.132 85.1642C269.501 84.6241 269.102 83.8911 268.96 82.9524H269.269C269.437 83.8268 269.823 84.5084 270.39 84.9713C270.97 85.4342 271.678 85.6657 272.503 85.6657C273.572 85.6657 274.384 85.357 274.938 84.727C275.479 84.1097 275.762 83.2868 275.762 82.2709C275.762 81.2551 275.492 80.535 274.938 79.9692C274.384 79.4034 273.598 79.1205 272.593 79.1205C271.897 79.1205 271.266 79.2619 270.712 79.5577C270.158 79.8535 269.72 80.2649 269.424 80.7922H269.153V75.16H275.569V75.43L275.517 75.4557Z" fill="white"/>
</g>
<defs>
<clipPath id="clip0_2004_1073">
<rect width="276.032" height="86" fill="white"/>
</clipPath>
</defs>
</svg>
