<svg width="19" height="19" viewBox="0 0 19 19" fill="none" xmlns="http://www.w3.org/2000/svg">
<path d="M15.5059 18.1705C16.736 17.6953 17.7084 16.7228 18.1837 15.4928C18.4087 14.9101 18.5662 14.2453 18.6089 13.2728C18.619 13.045 18.6269 12.8538 18.6342 12.662V6.16472C18.6292 6.02917 18.6235 5.888 18.6162 5.7294C18.5735 4.75694 18.416 4.08876 18.191 3.50945C17.9587 2.89471 17.601 2.34408 17.1331 1.88682C16.6752 1.42168 16.1212 1.06059 15.5132 0.832244C14.9306 0.607268 14.2658 0.449786 13.2933 0.40704C12.3135 0.360358 12.0025 0.34967 9.51821 0.34967C7.03392 0.34967 6.72233 0.360357 5.7465 0.403103C4.77404 0.445848 4.10586 0.603331 3.52655 0.828306C2.91181 1.06059 2.36118 1.4183 1.90335 1.88682C1.43878 2.34464 1.07769 2.89864 0.848782 3.50608C0.623807 4.08876 0.466324 4.75356 0.423579 5.72602C0.376897 6.70579 0.366211 7.01682 0.366211 9.50167C0.366211 11.9865 0.376896 12.2976 0.419642 13.2734C0.462387 14.2458 0.61987 14.9146 0.845408 15.4933C1.0777 16.1081 1.43878 16.6587 1.90335 17.1165C2.36118 17.5811 2.91518 17.9427 3.52318 18.1711C4.10586 18.3961 4.77067 18.5536 5.74312 18.5963C6.71895 18.6396 7.02998 18.6503 9.51483 18.6503C11.9997 18.6503 12.3102 18.6396 13.2865 18.5963C14.259 18.5536 14.9266 18.3955 15.5059 18.1705ZM9.52158 17.0052C7.07948 17.0052 6.78645 16.9945 5.82468 16.9517C4.93096 16.9124 4.44839 16.7622 4.12667 16.6373C3.73015 16.4905 3.36907 16.2582 3.07548 15.9545C2.77176 15.6576 2.53891 15.3004 2.39268 14.9033C2.26782 14.5816 2.11764 14.0951 2.07827 13.2053C2.03553 12.2402 2.02484 11.9505 2.02484 9.50842C2.02484 7.06631 2.03553 6.77328 2.07827 5.81207C2.11764 4.91836 2.26782 4.43579 2.39268 4.11407C2.53947 3.71699 2.77176 3.3559 3.07941 3.06287C3.37582 2.75916 3.73353 2.52687 4.13005 2.38007C4.45176 2.25521 4.93827 2.10504 5.82805 2.06567C6.79319 2.02293 7.08285 2.01224 9.5244 2.01224C11.9659 2.01224 12.2595 2.02293 13.2213 2.06567C14.115 2.10504 14.5976 2.25521 14.9193 2.38007C15.3158 2.52687 15.6769 2.75916 15.9699 3.06287C16.2737 3.35984 16.5065 3.71699 16.6527 4.11407C16.7776 4.43579 16.9278 4.92173 16.9671 5.81207C17.0099 6.77722 17.0206 7.06687 17.0206 9.50842C17.0206 11.95 17.0099 12.2362 16.9671 13.2014C16.9278 14.0951 16.7776 14.5777 16.6527 14.8994C16.3451 15.6969 15.7123 16.3297 14.9154 16.6368C14.5937 16.7616 14.1077 16.9118 13.2174 16.9512C12.2522 16.9939 11.9631 17.0052 9.52158 17.0052Z" fill="#333333"/>
<path d="M9.5184 4.79972C6.92275 4.79972 4.81698 6.90549 4.81698 9.50115C4.81698 12.0968 6.92275 14.2026 9.5184 14.2026C12.1141 14.2026 14.2193 12.0968 14.2193 9.50115C14.2193 6.90549 12.1135 4.79972 9.5184 4.79972ZM9.5184 12.5501C7.83446 12.5501 6.46886 11.1845 6.46886 9.50058C6.46886 7.81664 7.83446 6.45104 9.5184 6.45104C11.2023 6.45104 12.5679 7.81664 12.5679 9.50058C12.5679 11.1845 11.2023 12.5501 9.5184 12.5501Z" fill="#333333"/>
<path d="M15.5015 4.61385C15.5015 4.00754 15.01 3.51654 14.4037 3.51654C13.7974 3.51654 13.3063 4.00811 13.3063 4.61385C13.3063 5.2196 13.7979 5.71117 14.4037 5.71117C15.0094 5.71117 15.5015 5.22016 15.5015 4.61385Z" fill="#333333"/>
</svg>
