<svg width="15" height="15" viewBox="0 0 15 15" fill="none" xmlns="http://www.w3.org/2000/svg">
<path d="M3.43231 14.6276V5.00907H0.238083V14.6276H3.43231ZM1.83586 3.69605C2.94952 3.69605 3.64285 2.95745 3.64285 2.03442C3.62201 1.09035 2.94952 0.372375 1.85704 0.372375C0.763811 0.372375 0.0498047 1.09036 0.0498047 2.03434C0.0498047 2.95737 0.742882 3.69596 1.81493 3.69596L1.83586 3.69605ZM5.20036 14.6276H8.39434V9.25678C8.39434 8.96969 8.41518 8.68185 8.49957 8.47679C8.73037 7.90219 9.25593 7.30739 10.1385 7.30739C11.2941 7.30739 11.7566 8.18937 11.7566 9.48253V14.6276H14.9505V9.11265C14.9505 6.15836 13.3749 4.78357 11.2734 4.78357C9.55044 4.78357 8.79374 5.74742 8.37332 6.40389H8.39459V5.00941H5.20053C5.24222 5.91174 5.20036 14.6276 5.20036 14.6276Z" fill="#fff"/>
</svg>
