<svg width="23" height="22" viewBox="0 0 23 22" fill="none" xmlns="http://www.w3.org/2000/svg">
<g clip-path="url(#clip0_2003_1361)">
<path d="M19.1889 3.02514C17.9789 1.84514 16.5189 0.97514 14.9189 0.46514C13.7289 0.0751403 12.4989 -0.0348597 11.2489 -0.00485973C10.0989 0.0351403 8.97895 0.25514 7.90895 0.67514C4.59895 1.95514 1.63895 5.12514 1.02895 9.31514C0.828947 10.6651 0.858947 12.0051 1.14895 13.3351C1.71895 15.8951 3.01895 18.0151 5.05895 19.6351C7.72895 21.7651 10.7689 22.4351 14.0989 21.7251C15.8389 21.3551 17.3689 20.5451 18.7289 19.4051C19.0289 19.1651 19.2889 18.8951 19.3889 18.5051C19.4689 18.1751 19.4589 17.8751 19.1489 17.6551C19.0489 17.5751 18.9589 17.4951 18.8689 17.4051C18.8289 17.3651 18.7789 17.3451 18.7289 17.3351C18.3389 17.2451 18.0189 17.3851 17.7189 17.6151C17.4789 17.8051 17.2589 18.0151 17.0189 18.2051C15.0089 19.7051 12.7789 20.2651 10.3089 19.8851C8.27895 19.5751 6.59895 18.5751 5.18895 17.0951C5.13895 17.0351 5.13895 16.9951 5.16895 16.9351C5.25895 16.7951 5.33895 16.6551 5.42895 16.5251C6.82895 14.2551 8.26895 12.0151 9.63895 9.72514C9.65895 9.70514 9.65895 9.66514 9.70895 9.66514C9.70895 9.77514 9.71895 9.87514 9.71895 9.98514C9.71895 10.7151 9.71895 11.4451 9.71895 12.1751C9.72895 12.8051 9.78895 13.4351 9.87895 14.0651C10.0089 15.0351 11.1489 15.8651 12.2389 15.0451C12.5989 14.7751 12.8789 14.4351 13.0989 14.0551C13.8289 12.8551 14.5389 11.6551 15.2789 10.4751C15.4789 10.1651 15.6789 9.84514 15.8789 9.53514L15.9089 9.55514C15.9089 9.55514 15.9089 9.59514 15.9089 9.61514V11.4451C15.9089 12.1051 15.9789 12.7551 16.2389 13.3751C16.8289 14.8151 18.1889 15.5751 19.6489 15.2951C21.1289 15.0151 22.2189 13.6651 22.4289 12.3051C22.6089 11.1751 22.5589 10.0451 22.3389 8.92514C21.8989 6.62514 20.8489 4.66514 19.1889 3.03514V3.02514ZM20.5389 11.7151C20.4889 12.2451 20.2689 12.6951 19.8589 13.0351C19.5089 13.3151 19.1289 13.4651 18.6889 13.2951C18.2289 13.1151 17.9889 12.7351 17.9089 12.2551C17.7989 11.5451 17.8089 10.8351 17.8189 10.1251C17.8289 9.51514 17.8689 8.90514 17.7389 8.30514C17.5789 7.60514 17.1789 7.11514 16.4689 6.93514C16.1189 6.84514 15.8089 6.96514 15.4989 7.12514C15.0489 7.37514 14.6989 7.74514 14.4089 8.16514C13.8889 8.90514 13.4389 9.69514 12.9589 10.4751C12.5589 11.1251 12.1589 11.7651 11.7589 12.4151C11.7389 12.4351 11.7289 12.4651 11.7189 12.4851H11.6789V11.5651C11.6789 10.3051 11.6789 9.04514 11.6789 7.78514C11.6789 7.27514 11.5589 6.79514 11.1889 6.40514C10.8589 6.06514 10.3489 5.97514 9.91895 6.15514C9.61895 6.28514 9.36895 6.50514 9.17895 6.78514C8.73895 7.41514 8.36895 8.09514 7.94895 8.73514C6.60895 10.7951 5.35895 12.9151 4.03895 14.9951C3.93895 15.1651 3.83895 15.1651 3.74895 14.9751C3.63895 14.7551 3.54895 14.5251 3.45895 14.2951C3.06895 13.3151 2.87895 12.2751 2.85895 11.2251C2.82895 9.02514 3.43895 7.02514 4.80895 5.31514C6.15895 3.62514 7.89895 2.53514 10.0189 2.13514C13.0889 1.56514 15.7489 2.43514 17.9589 4.61514C19.3389 5.97514 20.1389 7.65514 20.4589 9.58514C20.5789 10.2951 20.6089 11.0151 20.5389 11.7251V11.7151Z" fill="#FEFEFE"/>
</g>
<defs>
<clipPath id="clip0_2003_1361">
<rect width="21.64" height="22.01" fill="white" transform="translate(0.898926 -0.00488281)"/>
</clipPath>
</defs>
</svg>
