<svg width="20" height="22" viewBox="0 0 20 22" fill="none" xmlns="http://www.w3.org/2000/svg">
<g clip-path="url(#clip0_2003_1364)">
<path fill-rule="evenodd" clip-rule="evenodd" d="M7.26847 1.23553C5.9605 1.91958 4.87804 2.49839 4.88556 2.52095C4.88556 2.58108 8.03521 4.1747 8.14797 4.16719C8.20059 4.16719 8.56893 3.99429 8.96733 3.79133L9.69649 3.41548L10.4933 3.8214L11.2901 4.22732L12.5906 3.64099C14.545 2.76149 14.7555 2.66377 14.7179 2.6337C14.6803 2.5886 13.9737 2.21275 12.0644 1.20546C11.1398 0.724364 10.2528 0.243271 10.0799 0.145549C9.90697 0.047827 9.74159 -0.0273438 9.71904 -0.0273438C9.69649 -0.0273438 8.59148 0.52892 7.27599 1.21297L7.26847 1.23553ZM1.51039 4.2198L0.142283 4.91889V8.01593C0.142283 9.71479 0.164834 11.113 0.187385 11.113C0.209936 11.113 0.878956 10.8198 1.68328 10.4665L3.13408 9.82003V6.55761L3.84068 6.94099C4.38943 7.24167 4.93066 7.53484 5.47941 7.83552L6.41152 8.33916L6.82496 8.15124C7.08806 8.03096 7.34364 7.91069 7.59922 7.79793C7.80218 7.70021 8.29079 7.48222 8.6892 7.30932C9.0876 7.13643 9.45594 6.95602 9.50856 6.91092C9.57621 6.8583 8.72678 6.38472 6.35891 5.17447C4.57736 4.25739 3.05139 3.5132 2.98374 3.5132C2.91608 3.5132 2.23955 3.83643 1.49536 4.22732L1.51039 4.2198ZM14.9509 4.41525C14.0188 4.83621 13.2596 5.19702 13.2596 5.21958C13.2596 5.24213 13.7707 5.54281 14.3871 5.8886C15.0111 6.23438 15.5147 6.54258 15.5147 6.56513C15.5147 6.58768 14.966 6.8583 14.2969 7.15146C13.6279 7.45215 11.9291 8.21889 10.5234 8.85784L5.82519 10.9852C4.64501 11.5189 3.57759 12 3.45731 12.0526C1.04433 13.1426 0.375312 13.4508 0.285107 13.5034C0.194902 13.556 0.172351 13.8567 0.157317 15.3902L0.134766 17.2093L1.35253 17.8332L2.5703 18.4571L4.26164 17.6904C5.19376 17.2695 5.95298 16.9011 5.95298 16.8786C5.95298 16.856 5.78009 16.7357 5.56961 16.6305C5.35913 16.5177 4.93066 16.2772 4.59991 16.0893C4.28419 15.9013 3.96096 15.7284 3.8933 15.7059C3.82565 15.6833 3.76551 15.6458 3.76551 15.6157C3.76551 15.5931 4.5097 15.2323 5.42679 14.8264C7.1933 14.0371 8.54637 13.4282 11.448 12.1127C12.7484 11.5264 14.0414 10.9401 15.3418 10.3537C16.4844 9.83506 17.8074 9.2337 18.2885 9.0157L19.1605 8.61729L19.183 6.77561L19.2056 4.93393L17.9728 4.30249C17.2963 3.95671 16.7099 3.67106 16.6799 3.67106C16.6498 3.67106 15.8605 4.01684 14.9284 4.4378L14.9509 4.41525ZM18.8598 11.0603C18.6719 11.1505 18.3186 11.3159 18.0555 11.4362C17.7999 11.549 17.3038 11.7745 16.9655 11.9248L16.3491 12.2105L16.3341 13.8266C16.3265 14.7136 16.2965 15.4428 16.2589 15.4353C16.1837 15.4202 15.0261 14.8264 13.8609 14.2025C13.019 13.7515 12.9664 13.7289 12.771 13.8266C12.6582 13.8868 11.9742 14.1874 11.2525 14.5032C10.5309 14.8189 9.91448 15.1045 9.89193 15.1271C9.86186 15.1496 11.3127 15.9389 13.1168 16.8786L16.3942 18.5849L17.7924 17.8633C18.5591 17.4649 19.2206 17.1041 19.2432 17.059C19.3108 16.9537 19.3033 10.8875 19.2432 10.895C19.2131 10.895 19.0402 10.9701 18.8598 11.0603ZM11.1097 18.179C10.8692 18.2843 10.6211 18.3895 10.3805 18.4947C9.65139 18.8105 9.79421 18.8255 8.92223 18.3895C8.34341 18.0963 8.08783 18.0136 7.98259 18.0512C7.89991 18.0813 7.20082 18.397 6.41904 18.7503C5.64478 19.1036 4.98328 19.3968 4.94569 19.3968C4.61494 19.3968 5.16369 19.72 7.25344 20.7724L9.704 22.0052L10.7338 21.494C11.2976 21.2159 12.4477 20.6521 13.2746 20.2462C14.109 19.8403 14.7705 19.502 14.763 19.487C14.748 19.472 14.0564 19.1187 13.2145 18.6902L11.6885 17.9234L11.1097 18.1715V18.179Z" fill="white"/>
</g>
<defs>
<clipPath id="clip0_2003_1364">
<rect width="19.1535" height="22.01" fill="white" transform="translate(0.14209 -0.00488281)"/>
</clipPath>
</defs>
</svg>
