<svg width="30" height="30" viewBox="0 0 30 30" fill="none" xmlns="http://www.w3.org/2000/svg">
<circle cx="15" cy="15" r="15" fill="black"/>
<path d="M18.7172 19.9827C18.8734 20.1389 19.1266 20.1389 19.2828 19.9827L21.8284 17.4372C21.9846 17.281 21.9846 17.0277 21.8284 16.8715C21.6722 16.7153 21.4189 16.7153 21.2627 16.8715L19 19.1342L16.7373 16.8715C16.5811 16.7153 16.3278 16.7153 16.1716 16.8715C16.0154 17.0277 16.0154 17.281 16.1716 17.4372L18.7172 19.9827ZM18.6 9.30005L18.6 19.6999L19.4 19.6999L19.4 9.30005L18.6 9.30005Z" fill="white"/>
<path d="M11.2828 9.01722C11.1266 8.86101 10.8734 8.86101 10.7172 9.01722L8.17162 11.5628C8.01541 11.719 8.01541 11.9722 8.17162 12.1284C8.32783 12.2846 8.58109 12.2846 8.73729 12.1284L11 9.86573L13.2627 12.1284C13.4189 12.2846 13.6722 12.2846 13.8284 12.1284C13.9846 11.9722 13.9846 11.719 13.8284 11.5628L11.2828 9.01722ZM11.4 19.6999L11.4 9.30006L10.6 9.30006L10.6 19.6999L11.4 19.6999Z" fill="white"/>
</svg>
