<svg width="60" height="60" viewBox="0 0 60 60" fill="none" xmlns="http://www.w3.org/2000/svg">
<rect width="60" height="60" rx="30" fill="white"/>
<path d="M20 22.5L27.6345 28.2653L27.6371 28.2674C28.4848 28.8891 28.9089 29.2001 29.3734 29.3203C29.784 29.4265 30.2156 29.4265 30.6262 29.3203C31.0912 29.2 31.5165 28.8881 32.3657 28.2653C32.3657 28.2653 37.2626 24.5074 40 22.5M18.75 34.7502V25.2502C18.75 23.8501 18.75 23.1495 19.0225 22.6147C19.2622 22.1443 19.6443 21.7622 20.1147 21.5225C20.6495 21.25 21.3501 21.25 22.7502 21.25H37.2502C38.6504 21.25 39.3495 21.25 39.8842 21.5225C40.3547 21.7622 40.7381 22.1443 40.9778 22.6147C41.25 23.149 41.25 23.8487 41.25 25.2461V34.7545C41.25 36.1519 41.25 36.8506 40.9778 37.3849C40.7381 37.8553 40.3547 38.2381 39.8842 38.4778C39.35 38.75 38.6513 38.75 37.2539 38.75H22.7461C21.3487 38.75 20.649 38.75 20.1147 38.4778C19.6443 38.2381 19.2622 37.8553 19.0225 37.3849C18.75 36.8501 18.75 36.1504 18.75 34.7502Z" stroke="black" stroke-width="2" stroke-linecap="round" stroke-linejoin="round"/>
</svg>
