<svg width="60" height="60" viewBox="0 0 60 60" fill="none" xmlns="http://www.w3.org/2000/svg">
<rect width="60" height="60" rx="30" fill="white"/>
<path d="M26.8781 20.3215C26.4984 19.3724 25.5791 18.75 24.5569 18.75H21.1184C19.8104 18.75 18.75 19.8101 18.75 21.1182C18.75 32.2365 27.7635 41.25 38.8818 41.25C40.1899 41.25 41.25 40.1895 41.25 38.8815L41.2506 35.4424C41.2506 34.4202 40.6284 33.5011 39.6792 33.1214L36.3837 31.8037C35.5311 31.4626 34.5604 31.6161 33.8549 32.204L33.0044 32.9133C32.0111 33.7411 30.5495 33.6753 29.6352 32.761L27.2403 30.3638C26.326 29.4495 26.2584 27.9892 27.0862 26.9959L27.7954 26.1454C28.3833 25.4399 28.5381 24.4689 28.1971 23.6164L26.8781 20.3215Z" stroke="black" stroke-width="2" stroke-linecap="round" stroke-linejoin="round"/>
</svg>
